<?xml version="1.0" encoding="UTF-8" standalone="no"?>
<!DOCTYPE svg PUBLIC "-//W3C//DTD SVG 1.1//EN"
 "http://www.w3.org/Graphics/SVG/1.1/DTD/svg11.dtd">
<!-- Generated by graphviz version 2.40.1 (20161225.0304)
 -->
<!-- Title: G Pages: 1 -->
<svg width="3824pt" height="346pt"
 viewBox="0.00 0.00 3824.00 346.00" xmlns="http://www.w3.org/2000/svg" xmlns:xlink="http://www.w3.org/1999/xlink">
<g id="graph0" class="graph" transform="scale(1 1) rotate(0) translate(4 342)">
<title>G</title>
<polygon fill="#ffffff" stroke="transparent" points="-4,4 -4,-342 3820,-342 3820,4 -4,4"/>
<g id="clust1" class="cluster">
<title>cluster_root</title>
<g id="a_clust1"><a xlink:title="eventq_index=0&#10;full_system=true&#10;sim_quantum=0&#10;time_sync_enable=false&#10;time_sync_period=100000000000&#10;time_sync_spin_threshold=100000000">
<path fill="#bab6ae" stroke="#000000" d="M20,-8C20,-8 3796,-8 3796,-8 3802,-8 3808,-14 3808,-20 3808,-20 3808,-318 3808,-318 3808,-324 3802,-330 3796,-330 3796,-330 20,-330 20,-330 14,-330 8,-324 8,-318 8,-318 8,-20 8,-20 8,-14 14,-8 20,-8"/>
<text text-anchor="middle" x="1908" y="-314.8" font-family="Arial" font-size="14.00" fill="#000000">root </text>
<text text-anchor="middle" x="1908" y="-299.8" font-family="Arial" font-size="14.00" fill="#000000">: Root</text>
</a>
</g>
</g>
<g id="clust2" class="cluster">
<title>cluster_system</title>
<g id="a_clust2"><a xlink:title="delay=0&#10;delay_var=0&#10;dump=Null&#10;eventq_index=0&#10;fabric_speed=800.000000&#10;output_buffer_size=1048576&#10;time_to_live=10000000000">
<path fill="#9f9c95" stroke="#000000" d="M28,-16C28,-16 3788,-16 3788,-16 3794,-16 3800,-22 3800,-28 3800,-28 3800,-272 3800,-272 3800,-278 3794,-284 3788,-284 3788,-284 28,-284 28,-284 22,-284 16,-278 16,-272 16,-272 16,-28 16,-28 16,-22 22,-16 28,-16"/>
<text text-anchor="middle" x="1908" y="-268.8" font-family="Arial" font-size="14.00" fill="#000000">system </text>
<text text-anchor="middle" x="1908" y="-253.8" font-family="Arial" font-size="14.00" fill="#000000">: EtherSwitch</text>
</a>
</g>
</g>
<g id="clust3" class="cluster">
<title>cluster_system_portlink00</title>
<g id="a_clust3"><a xlink:title="delay=500000&#10;delay_var=0&#10;dist_rank=0&#10;dist_size=32&#10;dist_sync_on_pseudo_op=false&#10;dump=Null&#10;eventq_index=0&#10;is_switch=true&#10;&#10;um_nodes=32&#10;server_name=127.0.0.1&#10;server_port=2200&#10;speed=800.000000&#10;sync_repeat=500000&#10;sync_start=0">
<path fill="#84827c" stroke="#000000" d="M3694,-147C3694,-147 3780,-147 3780,-147 3786,-147 3792,-153 3792,-159 3792,-159 3792,-226 3792,-226 3792,-232 3786,-238 3780,-238 3780,-238 3694,-238 3694,-238 3688,-238 3682,-232 3682,-226 3682,-226 3682,-159 3682,-159 3682,-153 3688,-147 3694,-147"/>
<text text-anchor="middle" x="3737" y="-222.8" font-family="Arial" font-size="14.00" fill="#000000">portlink00 </text>
<text text-anchor="middle" x="3737" y="-207.8" font-family="Arial" font-size="14.00" fill="#000000">: DistEtherLink</text>
</a>
</g>
</g>
<g id="clust4" class="cluster">
<title>cluster_system_portlink01</title>
<g id="a_clust4"><a xlink:title="delay=500000&#10;delay_var=0&#10;dist_rank=0&#10;dist_size=32&#10;dist_sync_on_pseudo_op=false&#10;dump=Null&#10;eventq_index=0&#10;is_switch=true&#10;&#10;um_nodes=32&#10;server_name=127.0.0.1&#10;server_port=2200&#10;speed=800.000000&#10;sync_repeat=500000&#10;sync_start=0">
<path fill="#84827c" stroke="#000000" d="M3576,-147C3576,-147 3662,-147 3662,-147 3668,-147 3674,-153 3674,-159 3674,-159 3674,-226 3674,-226 3674,-232 3668,-238 3662,-238 3662,-238 3576,-238 3576,-238 3570,-238 3564,-232 3564,-226 3564,-226 3564,-159 3564,-159 3564,-153 3570,-147 3576,-147"/>
<text text-anchor="middle" x="3619" y="-222.8" font-family="Arial" font-size="14.00" fill="#000000">portlink01 </text>
<text text-anchor="middle" x="3619" y="-207.8" font-family="Arial" font-size="14.00" fill="#000000">: DistEtherLink</text>
</a>
</g>
</g>
<g id="clust5" class="cluster">
<title>cluster_system_portlink02</title>
<g id="a_clust5"><a xlink:title="delay=500000&#10;delay_var=0&#10;dist_rank=0&#10;dist_size=32&#10;dist_sync_on_pseudo_op=false&#10;dump=Null&#10;eventq_index=0&#10;is_switch=true&#10;&#10;um_nodes=32&#10;server_name=127.0.0.1&#10;server_port=2200&#10;speed=800.000000&#10;sync_repeat=500000&#10;sync_start=0">
<path fill="#84827c" stroke="#000000" d="M3458,-147C3458,-147 3544,-147 3544,-147 3550,-147 3556,-153 3556,-159 3556,-159 3556,-226 3556,-226 3556,-232 3550,-238 3544,-238 3544,-238 3458,-238 3458,-238 3452,-238 3446,-232 3446,-226 3446,-226 3446,-159 3446,-159 3446,-153 3452,-147 3458,-147"/>
<text text-anchor="middle" x="3501" y="-222.8" font-family="Arial" font-size="14.00" fill="#000000">portlink02 </text>
<text text-anchor="middle" x="3501" y="-207.8" font-family="Arial" font-size="14.00" fill="#000000">: DistEtherLink</text>
</a>
</g>
</g>
<g id="clust6" class="cluster">
<title>cluster_system_portlink03</title>
<g id="a_clust6"><a xlink:title="delay=500000&#10;delay_var=0&#10;dist_rank=0&#10;dist_size=32&#10;dist_sync_on_pseudo_op=false&#10;dump=Null&#10;eventq_index=0&#10;is_switch=true&#10;&#10;um_nodes=32&#10;server_name=127.0.0.1&#10;server_port=2200&#10;speed=800.000000&#10;sync_repeat=500000&#10;sync_start=0">
<path fill="#84827c" stroke="#000000" d="M3340,-147C3340,-147 3426,-147 3426,-147 3432,-147 3438,-153 3438,-159 3438,-159 3438,-226 3438,-226 3438,-232 3432,-238 3426,-238 3426,-238 3340,-238 3340,-238 3334,-238 3328,-232 3328,-226 3328,-226 3328,-159 3328,-159 3328,-153 3334,-147 3340,-147"/>
<text text-anchor="middle" x="3383" y="-222.8" font-family="Arial" font-size="14.00" fill="#000000">portlink03 </text>
<text text-anchor="middle" x="3383" y="-207.8" font-family="Arial" font-size="14.00" fill="#000000">: DistEtherLink</text>
</a>
</g>
</g>
<g id="clust7" class="cluster">
<title>cluster_system_portlink04</title>
<g id="a_clust7"><a xlink:title="delay=500000&#10;delay_var=0&#10;dist_rank=0&#10;dist_size=32&#10;dist_sync_on_pseudo_op=false&#10;dump=Null&#10;eventq_index=0&#10;is_switch=true&#10;&#10;um_nodes=32&#10;server_name=127.0.0.1&#10;server_port=2200&#10;speed=800.000000&#10;sync_repeat=500000&#10;sync_start=0">
<path fill="#84827c" stroke="#000000" d="M3222,-147C3222,-147 3308,-147 3308,-147 3314,-147 3320,-153 3320,-159 3320,-159 3320,-226 3320,-226 3320,-232 3314,-238 3308,-238 3308,-238 3222,-238 3222,-238 3216,-238 3210,-232 3210,-226 3210,-226 3210,-159 3210,-159 3210,-153 3216,-147 3222,-147"/>
<text text-anchor="middle" x="3265" y="-222.8" font-family="Arial" font-size="14.00" fill="#000000">portlink04 </text>
<text text-anchor="middle" x="3265" y="-207.8" font-family="Arial" font-size="14.00" fill="#000000">: DistEtherLink</text>
</a>
</g>
</g>
<g id="clust8" class="cluster">
<title>cluster_system_portlink05</title>
<g id="a_clust8"><a xlink:title="delay=500000&#10;delay_var=0&#10;dist_rank=0&#10;dist_size=32&#10;dist_sync_on_pseudo_op=false&#10;dump=Null&#10;eventq_index=0&#10;is_switch=true&#10;&#10;um_nodes=32&#10;server_name=127.0.0.1&#10;server_port=2200&#10;speed=800.000000&#10;sync_repeat=500000&#10;sync_start=0">
<path fill="#84827c" stroke="#000000" d="M3104,-147C3104,-147 3190,-147 3190,-147 3196,-147 3202,-153 3202,-159 3202,-159 3202,-226 3202,-226 3202,-232 3196,-238 3190,-238 3190,-238 3104,-238 3104,-238 3098,-238 3092,-232 3092,-226 3092,-226 3092,-159 3092,-159 3092,-153 3098,-147 3104,-147"/>
<text text-anchor="middle" x="3147" y="-222.8" font-family="Arial" font-size="14.00" fill="#000000">portlink05 </text>
<text text-anchor="middle" x="3147" y="-207.8" font-family="Arial" font-size="14.00" fill="#000000">: DistEtherLink</text>
</a>
</g>
</g>
<g id="clust9" class="cluster">
<title>cluster_system_portlink06</title>
<g id="a_clust9"><a xlink:title="delay=500000&#10;delay_var=0&#10;dist_rank=0&#10;dist_size=32&#10;dist_sync_on_pseudo_op=false&#10;dump=Null&#10;eventq_index=0&#10;is_switch=true&#10;&#10;um_nodes=32&#10;server_name=127.0.0.1&#10;server_port=2200&#10;speed=800.000000&#10;sync_repeat=500000&#10;sync_start=0">
<path fill="#84827c" stroke="#000000" d="M2986,-147C2986,-147 3072,-147 3072,-147 3078,-147 3084,-153 3084,-159 3084,-159 3084,-226 3084,-226 3084,-232 3078,-238 3072,-238 3072,-238 2986,-238 2986,-238 2980,-238 2974,-232 2974,-226 2974,-226 2974,-159 2974,-159 2974,-153 2980,-147 2986,-147"/>
<text text-anchor="middle" x="3029" y="-222.8" font-family="Arial" font-size="14.00" fill="#000000">portlink06 </text>
<text text-anchor="middle" x="3029" y="-207.8" font-family="Arial" font-size="14.00" fill="#000000">: DistEtherLink</text>
</a>
</g>
</g>
<g id="clust10" class="cluster">
<title>cluster_system_portlink07</title>
<g id="a_clust10"><a xlink:title="delay=500000&#10;delay_var=0&#10;dist_rank=0&#10;dist_size=32&#10;dist_sync_on_pseudo_op=false&#10;dump=Null&#10;eventq_index=0&#10;is_switch=true&#10;&#10;um_nodes=32&#10;server_name=127.0.0.1&#10;server_port=2200&#10;speed=800.000000&#10;sync_repeat=500000&#10;sync_start=0">
<path fill="#84827c" stroke="#000000" d="M2868,-147C2868,-147 2954,-147 2954,-147 2960,-147 2966,-153 2966,-159 2966,-159 2966,-226 2966,-226 2966,-232 2960,-238 2954,-238 2954,-238 2868,-238 2868,-238 2862,-238 2856,-232 2856,-226 2856,-226 2856,-159 2856,-159 2856,-153 2862,-147 2868,-147"/>
<text text-anchor="middle" x="2911" y="-222.8" font-family="Arial" font-size="14.00" fill="#000000">portlink07 </text>
<text text-anchor="middle" x="2911" y="-207.8" font-family="Arial" font-size="14.00" fill="#000000">: DistEtherLink</text>
</a>
</g>
</g>
<g id="clust11" class="cluster">
<title>cluster_system_portlink08</title>
<g id="a_clust11"><a xlink:title="delay=500000&#10;delay_var=0&#10;dist_rank=0&#10;dist_size=32&#10;dist_sync_on_pseudo_op=false&#10;dump=Null&#10;eventq_index=0&#10;is_switch=true&#10;&#10;um_nodes=32&#10;server_name=127.0.0.1&#10;server_port=2200&#10;speed=800.000000&#10;sync_repeat=500000&#10;sync_start=0">
<path fill="#84827c" stroke="#000000" d="M2750,-147C2750,-147 2836,-147 2836,-147 2842,-147 2848,-153 2848,-159 2848,-159 2848,-226 2848,-226 2848,-232 2842,-238 2836,-238 2836,-238 2750,-238 2750,-238 2744,-238 2738,-232 2738,-226 2738,-226 2738,-159 2738,-159 2738,-153 2744,-147 2750,-147"/>
<text text-anchor="middle" x="2793" y="-222.8" font-family="Arial" font-size="14.00" fill="#000000">portlink08 </text>
<text text-anchor="middle" x="2793" y="-207.8" font-family="Arial" font-size="14.00" fill="#000000">: DistEtherLink</text>
</a>
</g>
</g>
<g id="clust12" class="cluster">
<title>cluster_system_portlink09</title>
<g id="a_clust12"><a xlink:title="delay=500000&#10;delay_var=0&#10;dist_rank=0&#10;dist_size=32&#10;dist_sync_on_pseudo_op=false&#10;dump=Null&#10;eventq_index=0&#10;is_switch=true&#10;&#10;um_nodes=32&#10;server_name=127.0.0.1&#10;server_port=2200&#10;speed=800.000000&#10;sync_repeat=500000&#10;sync_start=0">
<path fill="#84827c" stroke="#000000" d="M2632,-147C2632,-147 2718,-147 2718,-147 2724,-147 2730,-153 2730,-159 2730,-159 2730,-226 2730,-226 2730,-232 2724,-238 2718,-238 2718,-238 2632,-238 2632,-238 2626,-238 2620,-232 2620,-226 2620,-226 2620,-159 2620,-159 2620,-153 2626,-147 2632,-147"/>
<text text-anchor="middle" x="2675" y="-222.8" font-family="Arial" font-size="14.00" fill="#000000">portlink09 </text>
<text text-anchor="middle" x="2675" y="-207.8" font-family="Arial" font-size="14.00" fill="#000000">: DistEtherLink</text>
</a>
</g>
</g>
<g id="clust13" class="cluster">
<title>cluster_system_portlink10</title>
<g id="a_clust13"><a xlink:title="delay=500000&#10;delay_var=0&#10;dist_rank=0&#10;dist_size=32&#10;dist_sync_on_pseudo_op=false&#10;dump=Null&#10;eventq_index=0&#10;is_switch=true&#10;&#10;um_nodes=32&#10;server_name=127.0.0.1&#10;server_port=2200&#10;speed=800.000000&#10;sync_repeat=500000&#10;sync_start=0">
<path fill="#84827c" stroke="#000000" d="M2514,-147C2514,-147 2600,-147 2600,-147 2606,-147 2612,-153 2612,-159 2612,-159 2612,-226 2612,-226 2612,-232 2606,-238 2600,-238 2600,-238 2514,-238 2514,-238 2508,-238 2502,-232 2502,-226 2502,-226 2502,-159 2502,-159 2502,-153 2508,-147 2514,-147"/>
<text text-anchor="middle" x="2557" y="-222.8" font-family="Arial" font-size="14.00" fill="#000000">portlink10 </text>
<text text-anchor="middle" x="2557" y="-207.8" font-family="Arial" font-size="14.00" fill="#000000">: DistEtherLink</text>
</a>
</g>
</g>
<g id="clust14" class="cluster">
<title>cluster_system_portlink11</title>
<g id="a_clust14"><a xlink:title="delay=500000&#10;delay_var=0&#10;dist_rank=0&#10;dist_size=32&#10;dist_sync_on_pseudo_op=false&#10;dump=Null&#10;eventq_index=0&#10;is_switch=true&#10;&#10;um_nodes=32&#10;server_name=127.0.0.1&#10;server_port=2200&#10;speed=800.000000&#10;sync_repeat=500000&#10;sync_start=0">
<path fill="#84827c" stroke="#000000" d="M2396,-147C2396,-147 2482,-147 2482,-147 2488,-147 2494,-153 2494,-159 2494,-159 2494,-226 2494,-226 2494,-232 2488,-238 2482,-238 2482,-238 2396,-238 2396,-238 2390,-238 2384,-232 2384,-226 2384,-226 2384,-159 2384,-159 2384,-153 2390,-147 2396,-147"/>
<text text-anchor="middle" x="2439" y="-222.8" font-family="Arial" font-size="14.00" fill="#000000">portlink11 </text>
<text text-anchor="middle" x="2439" y="-207.8" font-family="Arial" font-size="14.00" fill="#000000">: DistEtherLink</text>
</a>
</g>
</g>
<g id="clust15" class="cluster">
<title>cluster_system_portlink12</title>
<g id="a_clust15"><a xlink:title="delay=500000&#10;delay_var=0&#10;dist_rank=0&#10;dist_size=32&#10;dist_sync_on_pseudo_op=false&#10;dump=Null&#10;eventq_index=0&#10;is_switch=true&#10;&#10;um_nodes=32&#10;server_name=127.0.0.1&#10;server_port=2200&#10;speed=800.000000&#10;sync_repeat=500000&#10;sync_start=0">
<path fill="#84827c" stroke="#000000" d="M2278,-147C2278,-147 2364,-147 2364,-147 2370,-147 2376,-153 2376,-159 2376,-159 2376,-226 2376,-226 2376,-232 2370,-238 2364,-238 2364,-238 2278,-238 2278,-238 2272,-238 2266,-232 2266,-226 2266,-226 2266,-159 2266,-159 2266,-153 2272,-147 2278,-147"/>
<text text-anchor="middle" x="2321" y="-222.8" font-family="Arial" font-size="14.00" fill="#000000">portlink12 </text>
<text text-anchor="middle" x="2321" y="-207.8" font-family="Arial" font-size="14.00" fill="#000000">: DistEtherLink</text>
</a>
</g>
</g>
<g id="clust16" class="cluster">
<title>cluster_system_portlink13</title>
<g id="a_clust16"><a xlink:title="delay=500000&#10;delay_var=0&#10;dist_rank=0&#10;dist_size=32&#10;dist_sync_on_pseudo_op=false&#10;dump=Null&#10;eventq_index=0&#10;is_switch=true&#10;&#10;um_nodes=32&#10;server_name=127.0.0.1&#10;server_port=2200&#10;speed=800.000000&#10;sync_repeat=500000&#10;sync_start=0">
<path fill="#84827c" stroke="#000000" d="M2160,-147C2160,-147 2246,-147 2246,-147 2252,-147 2258,-153 2258,-159 2258,-159 2258,-226 2258,-226 2258,-232 2252,-238 2246,-238 2246,-238 2160,-238 2160,-238 2154,-238 2148,-232 2148,-226 2148,-226 2148,-159 2148,-159 2148,-153 2154,-147 2160,-147"/>
<text text-anchor="middle" x="2203" y="-222.8" font-family="Arial" font-size="14.00" fill="#000000">portlink13 </text>
<text text-anchor="middle" x="2203" y="-207.8" font-family="Arial" font-size="14.00" fill="#000000">: DistEtherLink</text>
</a>
</g>
</g>
<g id="clust17" class="cluster">
<title>cluster_system_portlink14</title>
<g id="a_clust17"><a xlink:title="delay=500000&#10;delay_var=0&#10;dist_rank=0&#10;dist_size=32&#10;dist_sync_on_pseudo_op=false&#10;dump=Null&#10;eventq_index=0&#10;is_switch=true&#10;&#10;um_nodes=32&#10;server_name=127.0.0.1&#10;server_port=2200&#10;speed=800.000000&#10;sync_repeat=500000&#10;sync_start=0">
<path fill="#84827c" stroke="#000000" d="M2042,-147C2042,-147 2128,-147 2128,-147 2134,-147 2140,-153 2140,-159 2140,-159 2140,-226 2140,-226 2140,-232 2134,-238 2128,-238 2128,-238 2042,-238 2042,-238 2036,-238 2030,-232 2030,-226 2030,-226 2030,-159 2030,-159 2030,-153 2036,-147 2042,-147"/>
<text text-anchor="middle" x="2085" y="-222.8" font-family="Arial" font-size="14.00" fill="#000000">portlink14 </text>
<text text-anchor="middle" x="2085" y="-207.8" font-family="Arial" font-size="14.00" fill="#000000">: DistEtherLink</text>
</a>
</g>
</g>
<g id="clust18" class="cluster">
<title>cluster_system_portlink15</title>
<g id="a_clust18"><a xlink:title="delay=500000&#10;delay_var=0&#10;dist_rank=0&#10;dist_size=32&#10;dist_sync_on_pseudo_op=false&#10;dump=Null&#10;eventq_index=0&#10;is_switch=true&#10;&#10;um_nodes=32&#10;server_name=127.0.0.1&#10;server_port=2200&#10;speed=800.000000&#10;sync_repeat=500000&#10;sync_start=0">
<path fill="#84827c" stroke="#000000" d="M1924,-147C1924,-147 2010,-147 2010,-147 2016,-147 2022,-153 2022,-159 2022,-159 2022,-226 2022,-226 2022,-232 2016,-238 2010,-238 2010,-238 1924,-238 1924,-238 1918,-238 1912,-232 1912,-226 1912,-226 1912,-159 1912,-159 1912,-153 1918,-147 1924,-147"/>
<text text-anchor="middle" x="1967" y="-222.8" font-family="Arial" font-size="14.00" fill="#000000">portlink15 </text>
<text text-anchor="middle" x="1967" y="-207.8" font-family="Arial" font-size="14.00" fill="#000000">: DistEtherLink</text>
</a>
</g>
</g>
<g id="clust19" class="cluster">
<title>cluster_system_portlink16</title>
<g id="a_clust19"><a xlink:title="delay=500000&#10;delay_var=0&#10;dist_rank=0&#10;dist_size=32&#10;dist_sync_on_pseudo_op=false&#10;dump=Null&#10;eventq_index=0&#10;is_switch=true&#10;&#10;um_nodes=32&#10;server_name=127.0.0.1&#10;server_port=2200&#10;speed=800.000000&#10;sync_repeat=500000&#10;sync_start=0">
<path fill="#84827c" stroke="#000000" d="M1806,-147C1806,-147 1892,-147 1892,-147 1898,-147 1904,-153 1904,-159 1904,-159 1904,-226 1904,-226 1904,-232 1898,-238 1892,-238 1892,-238 1806,-238 1806,-238 1800,-238 1794,-232 1794,-226 1794,-226 1794,-159 1794,-159 1794,-153 1800,-147 1806,-147"/>
<text text-anchor="middle" x="1849" y="-222.8" font-family="Arial" font-size="14.00" fill="#000000">portlink16 </text>
<text text-anchor="middle" x="1849" y="-207.8" font-family="Arial" font-size="14.00" fill="#000000">: DistEtherLink</text>
</a>
</g>
</g>
<g id="clust20" class="cluster">
<title>cluster_system_portlink17</title>
<g id="a_clust20"><a xlink:title="delay=500000&#10;delay_var=0&#10;dist_rank=0&#10;dist_size=32&#10;dist_sync_on_pseudo_op=false&#10;dump=Null&#10;eventq_index=0&#10;is_switch=true&#10;&#10;um_nodes=32&#10;server_name=127.0.0.1&#10;server_port=2200&#10;speed=800.000000&#10;sync_repeat=500000&#10;sync_start=0">
<path fill="#84827c" stroke="#000000" d="M1688,-147C1688,-147 1774,-147 1774,-147 1780,-147 1786,-153 1786,-159 1786,-159 1786,-226 1786,-226 1786,-232 1780,-238 1774,-238 1774,-238 1688,-238 1688,-238 1682,-238 1676,-232 1676,-226 1676,-226 1676,-159 1676,-159 1676,-153 1682,-147 1688,-147"/>
<text text-anchor="middle" x="1731" y="-222.8" font-family="Arial" font-size="14.00" fill="#000000">portlink17 </text>
<text text-anchor="middle" x="1731" y="-207.8" font-family="Arial" font-size="14.00" fill="#000000">: DistEtherLink</text>
</a>
</g>
</g>
<g id="clust21" class="cluster">
<title>cluster_system_portlink18</title>
<g id="a_clust21"><a xlink:title="delay=500000&#10;delay_var=0&#10;dist_rank=0&#10;dist_size=32&#10;dist_sync_on_pseudo_op=false&#10;dump=Null&#10;eventq_index=0&#10;is_switch=true&#10;&#10;um_nodes=32&#10;server_name=127.0.0.1&#10;server_port=2200&#10;speed=800.000000&#10;sync_repeat=500000&#10;sync_start=0">
<path fill="#84827c" stroke="#000000" d="M1570,-147C1570,-147 1656,-147 1656,-147 1662,-147 1668,-153 1668,-159 1668,-159 1668,-226 1668,-226 1668,-232 1662,-238 1656,-238 1656,-238 1570,-238 1570,-238 1564,-238 1558,-232 1558,-226 1558,-226 1558,-159 1558,-159 1558,-153 1564,-147 1570,-147"/>
<text text-anchor="middle" x="1613" y="-222.8" font-family="Arial" font-size="14.00" fill="#000000">portlink18 </text>
<text text-anchor="middle" x="1613" y="-207.8" font-family="Arial" font-size="14.00" fill="#000000">: DistEtherLink</text>
</a>
</g>
</g>
<g id="clust22" class="cluster">
<title>cluster_system_portlink19</title>
<g id="a_clust22"><a xlink:title="delay=500000&#10;delay_var=0&#10;dist_rank=0&#10;dist_size=32&#10;dist_sync_on_pseudo_op=false&#10;dump=Null&#10;eventq_index=0&#10;is_switch=true&#10;&#10;um_nodes=32&#10;server_name=127.0.0.1&#10;server_port=2200&#10;speed=800.000000&#10;sync_repeat=500000&#10;sync_start=0">
<path fill="#84827c" stroke="#000000" d="M1452,-147C1452,-147 1538,-147 1538,-147 1544,-147 1550,-153 1550,-159 1550,-159 1550,-226 1550,-226 1550,-232 1544,-238 1538,-238 1538,-238 1452,-238 1452,-238 1446,-238 1440,-232 1440,-226 1440,-226 1440,-159 1440,-159 1440,-153 1446,-147 1452,-147"/>
<text text-anchor="middle" x="1495" y="-222.8" font-family="Arial" font-size="14.00" fill="#000000">portlink19 </text>
<text text-anchor="middle" x="1495" y="-207.8" font-family="Arial" font-size="14.00" fill="#000000">: DistEtherLink</text>
</a>
</g>
</g>
<g id="clust23" class="cluster">
<title>cluster_system_portlink20</title>
<g id="a_clust23"><a xlink:title="delay=500000&#10;delay_var=0&#10;dist_rank=0&#10;dist_size=32&#10;dist_sync_on_pseudo_op=false&#10;dump=Null&#10;eventq_index=0&#10;is_switch=true&#10;&#10;um_nodes=32&#10;server_name=127.0.0.1&#10;server_port=2200&#10;speed=800.000000&#10;sync_repeat=500000&#10;sync_start=0">
<path fill="#84827c" stroke="#000000" d="M1334,-147C1334,-147 1420,-147 1420,-147 1426,-147 1432,-153 1432,-159 1432,-159 1432,-226 1432,-226 1432,-232 1426,-238 1420,-238 1420,-238 1334,-238 1334,-238 1328,-238 1322,-232 1322,-226 1322,-226 1322,-159 1322,-159 1322,-153 1328,-147 1334,-147"/>
<text text-anchor="middle" x="1377" y="-222.8" font-family="Arial" font-size="14.00" fill="#000000">portlink20 </text>
<text text-anchor="middle" x="1377" y="-207.8" font-family="Arial" font-size="14.00" fill="#000000">: DistEtherLink</text>
</a>
</g>
</g>
<g id="clust24" class="cluster">
<title>cluster_system_portlink21</title>
<g id="a_clust24"><a xlink:title="delay=500000&#10;delay_var=0&#10;dist_rank=0&#10;dist_size=32&#10;dist_sync_on_pseudo_op=false&#10;dump=Null&#10;eventq_index=0&#10;is_switch=true&#10;&#10;um_nodes=32&#10;server_name=127.0.0.1&#10;server_port=2200&#10;speed=800.000000&#10;sync_repeat=500000&#10;sync_start=0">
<path fill="#84827c" stroke="#000000" d="M1216,-147C1216,-147 1302,-147 1302,-147 1308,-147 1314,-153 1314,-159 1314,-159 1314,-226 1314,-226 1314,-232 1308,-238 1302,-238 1302,-238 1216,-238 1216,-238 1210,-238 1204,-232 1204,-226 1204,-226 1204,-159 1204,-159 1204,-153 1210,-147 1216,-147"/>
<text text-anchor="middle" x="1259" y="-222.8" font-family="Arial" font-size="14.00" fill="#000000">portlink21 </text>
<text text-anchor="middle" x="1259" y="-207.8" font-family="Arial" font-size="14.00" fill="#000000">: DistEtherLink</text>
</a>
</g>
</g>
<g id="clust25" class="cluster">
<title>cluster_system_portlink22</title>
<g id="a_clust25"><a xlink:title="delay=500000&#10;delay_var=0&#10;dist_rank=0&#10;dist_size=32&#10;dist_sync_on_pseudo_op=false&#10;dump=Null&#10;eventq_index=0&#10;is_switch=true&#10;&#10;um_nodes=32&#10;server_name=127.0.0.1&#10;server_port=2200&#10;speed=800.000000&#10;sync_repeat=500000&#10;sync_start=0">
<path fill="#84827c" stroke="#000000" d="M1098,-147C1098,-147 1184,-147 1184,-147 1190,-147 1196,-153 1196,-159 1196,-159 1196,-226 1196,-226 1196,-232 1190,-238 1184,-238 1184,-238 1098,-238 1098,-238 1092,-238 1086,-232 1086,-226 1086,-226 1086,-159 1086,-159 1086,-153 1092,-147 1098,-147"/>
<text text-anchor="middle" x="1141" y="-222.8" font-family="Arial" font-size="14.00" fill="#000000">portlink22 </text>
<text text-anchor="middle" x="1141" y="-207.8" font-family="Arial" font-size="14.00" fill="#000000">: DistEtherLink</text>
</a>
</g>
</g>
<g id="clust26" class="cluster">
<title>cluster_system_portlink23</title>
<g id="a_clust26"><a xlink:title="delay=500000&#10;delay_var=0&#10;dist_rank=0&#10;dist_size=32&#10;dist_sync_on_pseudo_op=false&#10;dump=Null&#10;eventq_index=0&#10;is_switch=true&#10;&#10;um_nodes=32&#10;server_name=127.0.0.1&#10;server_port=2200&#10;speed=800.000000&#10;sync_repeat=500000&#10;sync_start=0">
<path fill="#84827c" stroke="#000000" d="M980,-147C980,-147 1066,-147 1066,-147 1072,-147 1078,-153 1078,-159 1078,-159 1078,-226 1078,-226 1078,-232 1072,-238 1066,-238 1066,-238 980,-238 980,-238 974,-238 968,-232 968,-226 968,-226 968,-159 968,-159 968,-153 974,-147 980,-147"/>
<text text-anchor="middle" x="1023" y="-222.8" font-family="Arial" font-size="14.00" fill="#000000">portlink23 </text>
<text text-anchor="middle" x="1023" y="-207.8" font-family="Arial" font-size="14.00" fill="#000000">: DistEtherLink</text>
</a>
</g>
</g>
<g id="clust27" class="cluster">
<title>cluster_system_portlink24</title>
<g id="a_clust27"><a xlink:title="delay=500000&#10;delay_var=0&#10;dist_rank=0&#10;dist_size=32&#10;dist_sync_on_pseudo_op=false&#10;dump=Null&#10;eventq_index=0&#10;is_switch=true&#10;&#10;um_nodes=32&#10;server_name=127.0.0.1&#10;server_port=2200&#10;speed=800.000000&#10;sync_repeat=500000&#10;sync_start=0">
<path fill="#84827c" stroke="#000000" d="M862,-147C862,-147 948,-147 948,-147 954,-147 960,-153 960,-159 960,-159 960,-226 960,-226 960,-232 954,-238 948,-238 948,-238 862,-238 862,-238 856,-238 850,-232 850,-226 850,-226 850,-159 850,-159 850,-153 856,-147 862,-147"/>
<text text-anchor="middle" x="905" y="-222.8" font-family="Arial" font-size="14.00" fill="#000000">portlink24 </text>
<text text-anchor="middle" x="905" y="-207.8" font-family="Arial" font-size="14.00" fill="#000000">: DistEtherLink</text>
</a>
</g>
</g>
<g id="clust28" class="cluster">
<title>cluster_system_portlink25</title>
<g id="a_clust28"><a xlink:title="delay=500000&#10;delay_var=0&#10;dist_rank=0&#10;dist_size=32&#10;dist_sync_on_pseudo_op=false&#10;dump=Null&#10;eventq_index=0&#10;is_switch=true&#10;&#10;um_nodes=32&#10;server_name=127.0.0.1&#10;server_port=2200&#10;speed=800.000000&#10;sync_repeat=500000&#10;sync_start=0">
<path fill="#84827c" stroke="#000000" d="M744,-147C744,-147 830,-147 830,-147 836,-147 842,-153 842,-159 842,-159 842,-226 842,-226 842,-232 836,-238 830,-238 830,-238 744,-238 744,-238 738,-238 732,-232 732,-226 732,-226 732,-159 732,-159 732,-153 738,-147 744,-147"/>
<text text-anchor="middle" x="787" y="-222.8" font-family="Arial" font-size="14.00" fill="#000000">portlink25 </text>
<text text-anchor="middle" x="787" y="-207.8" font-family="Arial" font-size="14.00" fill="#000000">: DistEtherLink</text>
</a>
</g>
</g>
<g id="clust29" class="cluster">
<title>cluster_system_portlink26</title>
<g id="a_clust29"><a xlink:title="delay=500000&#10;delay_var=0&#10;dist_rank=0&#10;dist_size=32&#10;dist_sync_on_pseudo_op=false&#10;dump=Null&#10;eventq_index=0&#10;is_switch=true&#10;&#10;um_nodes=32&#10;server_name=127.0.0.1&#10;server_port=2200&#10;speed=800.000000&#10;sync_repeat=500000&#10;sync_start=0">
<path fill="#84827c" stroke="#000000" d="M626,-147C626,-147 712,-147 712,-147 718,-147 724,-153 724,-159 724,-159 724,-226 724,-226 724,-232 718,-238 712,-238 712,-238 626,-238 626,-238 620,-238 614,-232 614,-226 614,-226 614,-159 614,-159 614,-153 620,-147 626,-147"/>
<text text-anchor="middle" x="669" y="-222.8" font-family="Arial" font-size="14.00" fill="#000000">portlink26 </text>
<text text-anchor="middle" x="669" y="-207.8" font-family="Arial" font-size="14.00" fill="#000000">: DistEtherLink</text>
</a>
</g>
</g>
<g id="clust30" class="cluster">
<title>cluster_system_portlink27</title>
<g id="a_clust30"><a xlink:title="delay=500000&#10;delay_var=0&#10;dist_rank=0&#10;dist_size=32&#10;dist_sync_on_pseudo_op=false&#10;dump=Null&#10;eventq_index=0&#10;is_switch=true&#10;&#10;um_nodes=32&#10;server_name=127.0.0.1&#10;server_port=2200&#10;speed=800.000000&#10;sync_repeat=500000&#10;sync_start=0">
<path fill="#84827c" stroke="#000000" d="M508,-147C508,-147 594,-147 594,-147 600,-147 606,-153 606,-159 606,-159 606,-226 606,-226 606,-232 600,-238 594,-238 594,-238 508,-238 508,-238 502,-238 496,-232 496,-226 496,-226 496,-159 496,-159 496,-153 502,-147 508,-147"/>
<text text-anchor="middle" x="551" y="-222.8" font-family="Arial" font-size="14.00" fill="#000000">portlink27 </text>
<text text-anchor="middle" x="551" y="-207.8" font-family="Arial" font-size="14.00" fill="#000000">: DistEtherLink</text>
</a>
</g>
</g>
<g id="clust31" class="cluster">
<title>cluster_system_portlink28</title>
<g id="a_clust31"><a xlink:title="delay=500000&#10;delay_var=0&#10;dist_rank=0&#10;dist_size=32&#10;dist_sync_on_pseudo_op=false&#10;dump=Null&#10;eventq_index=0&#10;is_switch=true&#10;&#10;um_nodes=32&#10;server_name=127.0.0.1&#10;server_port=2200&#10;speed=800.000000&#10;sync_repeat=500000&#10;sync_start=0">
<path fill="#84827c" stroke="#000000" d="M390,-147C390,-147 476,-147 476,-147 482,-147 488,-153 488,-159 488,-159 488,-226 488,-226 488,-232 482,-238 476,-238 476,-238 390,-238 390,-238 384,-238 378,-232 378,-226 378,-226 378,-159 378,-159 378,-153 384,-147 390,-147"/>
<text text-anchor="middle" x="433" y="-222.8" font-family="Arial" font-size="14.00" fill="#000000">portlink28 </text>
<text text-anchor="middle" x="433" y="-207.8" font-family="Arial" font-size="14.00" fill="#000000">: DistEtherLink</text>
</a>
</g>
</g>
<g id="clust32" class="cluster">
<title>cluster_system_portlink29</title>
<g id="a_clust32"><a xlink:title="delay=500000&#10;delay_var=0&#10;dist_rank=0&#10;dist_size=32&#10;dist_sync_on_pseudo_op=false&#10;dump=Null&#10;eventq_index=0&#10;is_switch=true&#10;&#10;um_nodes=32&#10;server_name=127.0.0.1&#10;server_port=2200&#10;speed=800.000000&#10;sync_repeat=500000&#10;sync_start=0">
<path fill="#84827c" stroke="#000000" d="M272,-147C272,-147 358,-147 358,-147 364,-147 370,-153 370,-159 370,-159 370,-226 370,-226 370,-232 364,-238 358,-238 358,-238 272,-238 272,-238 266,-238 260,-232 260,-226 260,-226 260,-159 260,-159 260,-153 266,-147 272,-147"/>
<text text-anchor="middle" x="315" y="-222.8" font-family="Arial" font-size="14.00" fill="#000000">portlink29 </text>
<text text-anchor="middle" x="315" y="-207.8" font-family="Arial" font-size="14.00" fill="#000000">: DistEtherLink</text>
</a>
</g>
</g>
<g id="clust33" class="cluster">
<title>cluster_system_portlink30</title>
<g id="a_clust33"><a xlink:title="delay=500000&#10;delay_var=0&#10;dist_rank=0&#10;dist_size=32&#10;dist_sync_on_pseudo_op=false&#10;dump=Null&#10;eventq_index=0&#10;is_switch=true&#10;&#10;um_nodes=32&#10;server_name=127.0.0.1&#10;server_port=2200&#10;speed=800.000000&#10;sync_repeat=500000&#10;sync_start=0">
<path fill="#84827c" stroke="#000000" d="M154,-147C154,-147 240,-147 240,-147 246,-147 252,-153 252,-159 252,-159 252,-226 252,-226 252,-232 246,-238 240,-238 240,-238 154,-238 154,-238 148,-238 142,-232 142,-226 142,-226 142,-159 142,-159 142,-153 148,-147 154,-147"/>
<text text-anchor="middle" x="197" y="-222.8" font-family="Arial" font-size="14.00" fill="#000000">portlink30 </text>
<text text-anchor="middle" x="197" y="-207.8" font-family="Arial" font-size="14.00" fill="#000000">: DistEtherLink</text>
</a>
</g>
</g>
<g id="clust34" class="cluster">
<title>cluster_system_portlink31</title>
<g id="a_clust34"><a xlink:title="delay=500000&#10;delay_var=0&#10;dist_rank=0&#10;dist_size=32&#10;dist_sync_on_pseudo_op=false&#10;dump=Null&#10;eventq_index=0&#10;is_switch=true&#10;&#10;um_nodes=32&#10;server_name=127.0.0.1&#10;server_port=2200&#10;speed=800.000000&#10;sync_repeat=500000&#10;sync_start=0">
<path fill="#84827c" stroke="#000000" d="M36,-147C36,-147 122,-147 122,-147 128,-147 134,-153 134,-159 134,-159 134,-226 134,-226 134,-232 128,-238 122,-238 122,-238 36,-238 36,-238 30,-238 24,-232 24,-226 24,-226 24,-159 24,-159 24,-153 30,-147 36,-147"/>
<text text-anchor="middle" x="79" y="-222.8" font-family="Arial" font-size="14.00" fill="#000000">portlink31 </text>
<text text-anchor="middle" x="79" y="-207.8" font-family="Arial" font-size="14.00" fill="#000000">: DistEtherLink</text>
</a>
</g>
</g>
<!-- system_interface -->
<g id="node1" class="node">
<title>system_interface</title>
<path fill="#7f7c77" stroke="#000000" d="M1884,-24.5C1884,-24.5 1932,-24.5 1932,-24.5 1938,-24.5 1944,-30.5 1944,-36.5 1944,-36.5 1944,-48.5 1944,-48.5 1944,-54.5 1938,-60.5 1932,-60.5 1932,-60.5 1884,-60.5 1884,-60.5 1878,-60.5 1872,-54.5 1872,-48.5 1872,-48.5 1872,-36.5 1872,-36.5 1872,-30.5 1878,-24.5 1884,-24.5"/>
<text text-anchor="middle" x="1908" y="-38.8" font-family="Arial" font-size="14.00" fill="#000000">interface</text>
</g>
<!-- system_portlink00_int0 -->
<g id="node2" class="node">
<title>system_portlink00_int0</title>
<path fill="#6a6863" stroke="#000000" d="M3702,-155.5C3702,-155.5 3732,-155.5 3732,-155.5 3738,-155.5 3744,-161.5 3744,-167.5 3744,-167.5 3744,-179.5 3744,-179.5 3744,-185.5 3738,-191.5 3732,-191.5 3732,-191.5 3702,-191.5 3702,-191.5 3696,-191.5 3690,-185.5 3690,-179.5 3690,-179.5 3690,-167.5 3690,-167.5 3690,-161.5 3696,-155.5 3702,-155.5"/>
<text text-anchor="middle" x="3717" y="-169.8" font-family="Arial" font-size="14.00" fill="#000000">int0</text>
</g>
<!-- system_portlink00_int0&#45;&gt;system_interface -->
<g id="edge1" class="edge">
<title>system_portlink00_int0&#45;&gt;system_interface</title>
<path fill="none" stroke="#000000" d="M3685.7194,-150.2476C3683.1856,-148.9911 3680.5986,-147.884 3678,-147 3510.5652,-90.0423 2217.3251,-51.1326 1954.5129,-43.7686"/>
<polygon fill="#000000" stroke="#000000" points="3684.17,-153.3934 3694.588,-155.3208 3687.6458,-147.3173 3684.17,-153.3934"/>
<polygon fill="#000000" stroke="#000000" points="1954.2775,-40.2608 1944.1838,-43.4806 1954.0823,-47.258 1954.2775,-40.2608"/>
</g>
<!-- system_portlink01_int0 -->
<g id="node3" class="node">
<title>system_portlink01_int0</title>
<path fill="#6a6863" stroke="#000000" d="M3584,-155.5C3584,-155.5 3614,-155.5 3614,-155.5 3620,-155.5 3626,-161.5 3626,-167.5 3626,-167.5 3626,-179.5 3626,-179.5 3626,-185.5 3620,-191.5 3614,-191.5 3614,-191.5 3584,-191.5 3584,-191.5 3578,-191.5 3572,-185.5 3572,-179.5 3572,-179.5 3572,-167.5 3572,-167.5 3572,-161.5 3578,-155.5 3584,-155.5"/>
<text text-anchor="middle" x="3599" y="-169.8" font-family="Arial" font-size="14.00" fill="#000000">int0</text>
</g>
<!-- system_portlink01_int0&#45;&gt;system_interface -->
<g id="edge2" class="edge">
<title>system_portlink01_int0&#45;&gt;system_interface</title>
<path fill="none" stroke="#000000" d="M3567.7152,-150.2599C3565.1824,-149.0005 3562.5968,-147.8895 3560,-147 3404.463,-93.7249 2206.9559,-52.1936 1954.5928,-43.9804"/>
<polygon fill="#000000" stroke="#000000" points="3566.1649,-153.4054 3576.5818,-155.3391 3569.6443,-147.3314 3566.1649,-153.4054"/>
<polygon fill="#000000" stroke="#000000" points="1954.4173,-40.4729 1944.3092,-43.6471 1954.1906,-47.4692 1954.4173,-40.4729"/>
</g>
<!-- system_portlink02_int0 -->
<g id="node4" class="node">
<title>system_portlink02_int0</title>
<path fill="#6a6863" stroke="#000000" d="M3466,-155.5C3466,-155.5 3496,-155.5 3496,-155.5 3502,-155.5 3508,-161.5 3508,-167.5 3508,-167.5 3508,-179.5 3508,-179.5 3508,-185.5 3502,-191.5 3496,-191.5 3496,-191.5 3466,-191.5 3466,-191.5 3460,-191.5 3454,-185.5 3454,-179.5 3454,-179.5 3454,-167.5 3454,-167.5 3454,-161.5 3460,-155.5 3466,-155.5"/>
<text text-anchor="middle" x="3481" y="-169.8" font-family="Arial" font-size="14.00" fill="#000000">int0</text>
</g>
<!-- system_portlink02_int0&#45;&gt;system_interface -->
<g id="edge3" class="edge">
<title>system_portlink02_int0&#45;&gt;system_interface</title>
<path fill="none" stroke="#000000" d="M3449.7103,-150.2742C3447.1786,-149.0115 3444.5946,-147.8957 3442,-147 3298.2625,-97.3771 2195.0811,-53.3009 1954.312,-44.2113"/>
<polygon fill="#000000" stroke="#000000" points="3448.159,-153.4193 3458.5746,-155.3601 3451.6426,-147.3477 3448.159,-153.4193"/>
<polygon fill="#000000" stroke="#000000" points="1954.2763,-40.7076 1944.1518,-43.8293 1954.0132,-47.7027 1954.2763,-40.7076"/>
</g>
<!-- system_portlink03_int0 -->
<g id="node5" class="node">
<title>system_portlink03_int0</title>
<path fill="#6a6863" stroke="#000000" d="M3348,-155.5C3348,-155.5 3378,-155.5 3378,-155.5 3384,-155.5 3390,-161.5 3390,-167.5 3390,-167.5 3390,-179.5 3390,-179.5 3390,-185.5 3384,-191.5 3378,-191.5 3378,-191.5 3348,-191.5 3348,-191.5 3342,-191.5 3336,-185.5 3336,-179.5 3336,-179.5 3336,-167.5 3336,-167.5 3336,-161.5 3342,-155.5 3348,-155.5"/>
<text text-anchor="middle" x="3363" y="-169.8" font-family="Arial" font-size="14.00" fill="#000000">int0</text>
</g>
<!-- system_portlink03_int0&#45;&gt;system_interface -->
<g id="edge4" class="edge">
<title>system_portlink03_int0&#45;&gt;system_interface</title>
<path fill="none" stroke="#000000" d="M3331.7045,-150.2908C3329.1742,-149.0242 3326.5921,-147.9031 3324,-147 3062.4652,-55.8821 2169.085,-44.2102 1954.5794,-42.7181"/>
<polygon fill="#000000" stroke="#000000" points="3330.1521,-153.4354 3340.5661,-155.3846 3333.6406,-147.3666 3330.1521,-153.4354"/>
<polygon fill="#000000" stroke="#000000" points="1954.325,-39.2165 1944.3023,-42.6509 1954.2792,-46.2163 1954.325,-39.2165"/>
</g>
<!-- system_portlink04_int0 -->
<g id="node6" class="node">
<title>system_portlink04_int0</title>
<path fill="#6a6863" stroke="#000000" d="M3230,-155.5C3230,-155.5 3260,-155.5 3260,-155.5 3266,-155.5 3272,-161.5 3272,-167.5 3272,-167.5 3272,-179.5 3272,-179.5 3272,-185.5 3266,-191.5 3260,-191.5 3260,-191.5 3230,-191.5 3230,-191.5 3224,-191.5 3218,-185.5 3218,-179.5 3218,-179.5 3218,-167.5 3218,-167.5 3218,-161.5 3224,-155.5 3230,-155.5"/>
<text text-anchor="middle" x="3245" y="-169.8" font-family="Arial" font-size="14.00" fill="#000000">int0</text>
</g>
<!-- system_portlink04_int0&#45;&gt;system_interface -->
<g id="edge5" class="edge">
<title>system_portlink04_int0&#45;&gt;system_interface</title>
<path fill="none" stroke="#000000" d="M3213.6977,-150.3104C3211.1689,-149.0392 3208.589,-147.9117 3206,-147 2967.8453,-63.1361 2157.1157,-46.0631 1954.2898,-43.0731"/>
<polygon fill="#000000" stroke="#000000" points="3212.1438,-153.4544 3222.5559,-155.4135 3215.6381,-147.3889 3212.1438,-153.4544"/>
<polygon fill="#000000" stroke="#000000" points="1954.3168,-39.5732 1944.2677,-42.9296 1954.2165,-46.5725 1954.3168,-39.5732"/>
</g>
<!-- system_portlink05_int0 -->
<g id="node7" class="node">
<title>system_portlink05_int0</title>
<path fill="#6a6863" stroke="#000000" d="M3112,-155.5C3112,-155.5 3142,-155.5 3142,-155.5 3148,-155.5 3154,-161.5 3154,-167.5 3154,-167.5 3154,-179.5 3154,-179.5 3154,-185.5 3148,-191.5 3142,-191.5 3142,-191.5 3112,-191.5 3112,-191.5 3106,-191.5 3100,-185.5 3100,-179.5 3100,-179.5 3100,-167.5 3100,-167.5 3100,-161.5 3106,-155.5 3112,-155.5"/>
<text text-anchor="middle" x="3127" y="-169.8" font-family="Arial" font-size="14.00" fill="#000000">int0</text>
</g>
<!-- system_portlink05_int0&#45;&gt;system_interface -->
<g id="edge6" class="edge">
<title>system_portlink05_int0&#45;&gt;system_interface</title>
<path fill="none" stroke="#000000" d="M3095.6894,-150.3338C3093.1626,-149.0572 3090.5854,-147.922 3088,-147 2873.2855,-70.4244 2145.5844,-48.1086 1954.3501,-43.5019"/>
<polygon fill="#000000" stroke="#000000" points="3094.1338,-153.4771 3104.5437,-155.4481 3097.635,-147.4156 3094.1338,-153.4771"/>
<polygon fill="#000000" stroke="#000000" points="1954.1662,-39.9967 1944.0863,-43.2593 1954.0008,-46.9947 1954.1662,-39.9967"/>
</g>
<!-- system_portlink06_int0 -->
<g id="node8" class="node">
<title>system_portlink06_int0</title>
<path fill="#6a6863" stroke="#000000" d="M2994,-155.5C2994,-155.5 3024,-155.5 3024,-155.5 3030,-155.5 3036,-161.5 3036,-167.5 3036,-167.5 3036,-179.5 3036,-179.5 3036,-185.5 3030,-191.5 3024,-191.5 3024,-191.5 2994,-191.5 2994,-191.5 2988,-191.5 2982,-185.5 2982,-179.5 2982,-179.5 2982,-167.5 2982,-167.5 2982,-161.5 2988,-155.5 2994,-155.5"/>
<text text-anchor="middle" x="3009" y="-169.8" font-family="Arial" font-size="14.00" fill="#000000">int0</text>
</g>
<!-- system_portlink06_int0&#45;&gt;system_interface -->
<g id="edge7" class="edge">
<title>system_portlink06_int0&#45;&gt;system_interface</title>
<path fill="none" stroke="#000000" d="M2977.6791,-150.3623C2975.1547,-149.0791 2972.5808,-147.9346 2970,-147 2778.606,-77.6873 2133.2779,-50.3702 1954.3448,-44.0234"/>
<polygon fill="#000000" stroke="#000000" points="2976.1214,-153.5048 2986.5285,-155.4903 2979.631,-147.4482 2976.1214,-153.5048"/>
<polygon fill="#000000" stroke="#000000" points="1954.3304,-40.5208 1944.2141,-43.6689 1954.0856,-47.5165 1954.3304,-40.5208"/>
</g>
<!-- system_portlink07_int0 -->
<g id="node9" class="node">
<title>system_portlink07_int0</title>
<path fill="#6a6863" stroke="#000000" d="M2876,-155.5C2876,-155.5 2906,-155.5 2906,-155.5 2912,-155.5 2918,-161.5 2918,-167.5 2918,-167.5 2918,-179.5 2918,-179.5 2918,-185.5 2912,-191.5 2906,-191.5 2906,-191.5 2876,-191.5 2876,-191.5 2870,-191.5 2864,-185.5 2864,-179.5 2864,-179.5 2864,-167.5 2864,-167.5 2864,-161.5 2870,-155.5 2876,-155.5"/>
<text text-anchor="middle" x="2891" y="-169.8" font-family="Arial" font-size="14.00" fill="#000000">int0</text>
</g>
<!-- system_portlink07_int0&#45;&gt;system_interface -->
<g id="edge8" class="edge">
<title>system_portlink07_int0&#45;&gt;system_interface</title>
<path fill="none" stroke="#000000" d="M2859.2074,-150.1647C2856.8334,-148.967 2854.4191,-147.8928 2852,-147 2683.8861,-84.9587 2120.75,-52.938 1954.553,-44.6839"/>
<polygon fill="#000000" stroke="#000000" points="2857.6754,-153.3211 2868.0891,-155.272 2861.1649,-147.2528 2857.6754,-153.3211"/>
<polygon fill="#000000" stroke="#000000" points="1954.3481,-41.1697 1944.1883,-44.1745 1954.0044,-48.1613 1954.3481,-41.1697"/>
</g>
<!-- system_portlink08_int0 -->
<g id="node10" class="node">
<title>system_portlink08_int0</title>
<path fill="#6a6863" stroke="#000000" d="M2758,-155.5C2758,-155.5 2788,-155.5 2788,-155.5 2794,-155.5 2800,-161.5 2800,-167.5 2800,-167.5 2800,-179.5 2800,-179.5 2800,-185.5 2794,-191.5 2788,-191.5 2788,-191.5 2758,-191.5 2758,-191.5 2752,-191.5 2746,-185.5 2746,-179.5 2746,-179.5 2746,-167.5 2746,-167.5 2746,-161.5 2752,-155.5 2758,-155.5"/>
<text text-anchor="middle" x="2773" y="-169.8" font-family="Arial" font-size="14.00" fill="#000000">int0</text>
</g>
<!-- system_portlink08_int0&#45;&gt;system_interface -->
<g id="edge9" class="edge">
<title>system_portlink08_int0&#45;&gt;system_interface</title>
<path fill="none" stroke="#000000" d="M2741.1911,-150.2081C2738.821,-149.0001 2736.4121,-147.9116 2734,-147 2588.9179,-92.1694 2106.6337,-55.8321 1954.4378,-45.5131"/>
<polygon fill="#000000" stroke="#000000" points="2739.6552,-153.3629 2750.0642,-155.3387 2743.1592,-147.303 2739.6552,-153.3629"/>
<polygon fill="#000000" stroke="#000000" points="1954.2717,-41.9941 1944.0594,-44.8152 1953.802,-48.9783 1954.2717,-41.9941"/>
</g>
<!-- system_portlink09_int0 -->
<g id="node11" class="node">
<title>system_portlink09_int0</title>
<path fill="#6a6863" stroke="#000000" d="M2640,-155.5C2640,-155.5 2670,-155.5 2670,-155.5 2676,-155.5 2682,-161.5 2682,-167.5 2682,-167.5 2682,-179.5 2682,-179.5 2682,-185.5 2676,-191.5 2670,-191.5 2670,-191.5 2640,-191.5 2640,-191.5 2634,-191.5 2628,-185.5 2628,-179.5 2628,-179.5 2628,-167.5 2628,-167.5 2628,-161.5 2634,-155.5 2640,-155.5"/>
<text text-anchor="middle" x="2655" y="-169.8" font-family="Arial" font-size="14.00" fill="#000000">int0</text>
</g>
<!-- system_portlink09_int0&#45;&gt;system_interface -->
<g id="edge10" class="edge">
<title>system_portlink09_int0&#45;&gt;system_interface</title>
<path fill="none" stroke="#000000" d="M2623.1691,-150.2656C2620.8043,-149.0438 2618.4025,-147.9365 2616,-147 2493.8669,-99.3924 2092.0818,-59.2714 1954.6117,-46.6381"/>
<polygon fill="#000000" stroke="#000000" points="2621.6276,-153.4181 2632.0303,-155.4269 2625.1508,-147.3694 2621.6276,-153.4181"/>
<polygon fill="#000000" stroke="#000000" points="1954.6922,-43.131 1944.4153,-45.7071 1954.0556,-50.102 1954.6922,-43.131"/>
</g>
<!-- system_portlink10_int0 -->
<g id="node12" class="node">
<title>system_portlink10_int0</title>
<path fill="#6a6863" stroke="#000000" d="M2522,-155.5C2522,-155.5 2552,-155.5 2552,-155.5 2558,-155.5 2564,-161.5 2564,-167.5 2564,-167.5 2564,-179.5 2564,-179.5 2564,-185.5 2558,-191.5 2552,-191.5 2552,-191.5 2522,-191.5 2522,-191.5 2516,-191.5 2510,-185.5 2510,-179.5 2510,-179.5 2510,-167.5 2510,-167.5 2510,-161.5 2516,-155.5 2522,-155.5"/>
<text text-anchor="middle" x="2537" y="-169.8" font-family="Arial" font-size="14.00" fill="#000000">int0</text>
</g>
<!-- system_portlink10_int0&#45;&gt;system_interface -->
<g id="edge11" class="edge">
<title>system_portlink10_int0&#45;&gt;system_interface</title>
<path fill="none" stroke="#000000" d="M2504.449,-149.9862C2502.3152,-148.8854 2500.1566,-147.8766 2498,-147 2306.2663,-69.0678 2056.1887,-49.1514 1954.265,-44.1451"/>
<polygon fill="#000000" stroke="#000000" points="2503.1549,-153.2821 2513.5601,-155.2776 2506.6703,-147.2288 2503.1549,-153.2821"/>
<polygon fill="#000000" stroke="#000000" points="1954.1617,-40.6365 1944.0098,-43.6677 1953.8362,-47.629 1954.1617,-40.6365"/>
</g>
<!-- system_portlink11_int0 -->
<g id="node13" class="node">
<title>system_portlink11_int0</title>
<path fill="#6a6863" stroke="#000000" d="M2404,-155.5C2404,-155.5 2434,-155.5 2434,-155.5 2440,-155.5 2446,-161.5 2446,-167.5 2446,-167.5 2446,-179.5 2446,-179.5 2446,-185.5 2440,-191.5 2434,-191.5 2434,-191.5 2404,-191.5 2404,-191.5 2398,-191.5 2392,-185.5 2392,-179.5 2392,-179.5 2392,-167.5 2392,-167.5 2392,-161.5 2398,-155.5 2404,-155.5"/>
<text text-anchor="middle" x="2419" y="-169.8" font-family="Arial" font-size="14.00" fill="#000000">int0</text>
</g>
<!-- system_portlink11_int0&#45;&gt;system_interface -->
<g id="edge12" class="edge">
<title>system_portlink11_int0&#45;&gt;system_interface</title>
<path fill="none" stroke="#000000" d="M2386.4036,-150.0946C2384.2812,-148.9666 2382.1374,-147.9223 2380,-147 2232.0834,-83.1755 2040.6266,-56.3125 1954.0793,-46.8655"/>
<polygon fill="#000000" stroke="#000000" points="2385.0947,-153.3862 2395.4854,-155.4558 2388.6532,-147.3582 2385.0947,-153.3862"/>
<polygon fill="#000000" stroke="#000000" points="1954.3692,-43.3767 1944.0548,-45.7985 1953.6282,-50.3374 1954.3692,-43.3767"/>
</g>
<!-- system_portlink12_int0 -->
<g id="node14" class="node">
<title>system_portlink12_int0</title>
<path fill="#6a6863" stroke="#000000" d="M2286,-155.5C2286,-155.5 2316,-155.5 2316,-155.5 2322,-155.5 2328,-161.5 2328,-167.5 2328,-167.5 2328,-179.5 2328,-179.5 2328,-185.5 2322,-191.5 2316,-191.5 2316,-191.5 2286,-191.5 2286,-191.5 2280,-191.5 2274,-185.5 2274,-179.5 2274,-179.5 2274,-167.5 2274,-167.5 2274,-161.5 2280,-155.5 2286,-155.5"/>
<text text-anchor="middle" x="2301" y="-169.8" font-family="Arial" font-size="14.00" fill="#000000">int0</text>
</g>
<!-- system_portlink12_int0&#45;&gt;system_interface -->
<g id="edge13" class="edge">
<title>system_portlink12_int0&#45;&gt;system_interface</title>
<path fill="none" stroke="#000000" d="M2268.1447,-150.1682C2266.1012,-149.0342 2264.0441,-147.9672 2262,-147 2157.181,-97.4052 2023.6653,-65.7092 1954.3985,-51.3888"/>
<polygon fill="#000000" stroke="#000000" points="2266.5631,-153.3016 2276.9341,-155.4678 2270.1776,-147.3069 2266.5631,-153.3016"/>
<polygon fill="#000000" stroke="#000000" points="1954.7492,-47.8884 1944.2516,-49.3207 1953.3511,-54.7474 1954.7492,-47.8884"/>
</g>
<!-- system_portlink13_int0 -->
<g id="node15" class="node">
<title>system_portlink13_int0</title>
<path fill="#6a6863" stroke="#000000" d="M2168,-155.5C2168,-155.5 2198,-155.5 2198,-155.5 2204,-155.5 2210,-161.5 2210,-167.5 2210,-167.5 2210,-179.5 2210,-179.5 2210,-185.5 2204,-191.5 2198,-191.5 2198,-191.5 2168,-191.5 2168,-191.5 2162,-191.5 2156,-185.5 2156,-179.5 2156,-179.5 2156,-167.5 2156,-167.5 2156,-161.5 2162,-155.5 2168,-155.5"/>
<text text-anchor="middle" x="2183" y="-169.8" font-family="Arial" font-size="14.00" fill="#000000">int0</text>
</g>
<!-- system_portlink13_int0&#45;&gt;system_interface -->
<g id="edge14" class="edge">
<title>system_portlink13_int0&#45;&gt;system_interface</title>
<path fill="none" stroke="#000000" d="M2149.1961,-150.0048C2147.456,-148.9614 2145.7177,-147.9537 2144,-147 2080.2273,-111.5925 2002.1332,-78.961 1953.7171,-59.8919"/>
<polygon fill="#000000" stroke="#000000" points="2147.4951,-153.0696 2157.8232,-155.4321 2151.2226,-147.1446 2147.4951,-153.0696"/>
<polygon fill="#000000" stroke="#000000" points="1954.7353,-56.5319 1944.1474,-56.1473 1952.1845,-63.0506 1954.7353,-56.5319"/>
</g>
<!-- system_portlink14_int0 -->
<g id="node16" class="node">
<title>system_portlink14_int0</title>
<path fill="#6a6863" stroke="#000000" d="M2050,-155.5C2050,-155.5 2080,-155.5 2080,-155.5 2086,-155.5 2092,-161.5 2092,-167.5 2092,-167.5 2092,-179.5 2092,-179.5 2092,-185.5 2086,-191.5 2080,-191.5 2080,-191.5 2050,-191.5 2050,-191.5 2044,-191.5 2038,-185.5 2038,-179.5 2038,-179.5 2038,-167.5 2038,-167.5 2038,-161.5 2044,-155.5 2050,-155.5"/>
<text text-anchor="middle" x="2065" y="-169.8" font-family="Arial" font-size="14.00" fill="#000000">int0</text>
</g>
<!-- system_portlink14_int0&#45;&gt;system_interface -->
<g id="edge15" class="edge">
<title>system_portlink14_int0&#45;&gt;system_interface</title>
<path fill="none" stroke="#000000" d="M2035.3371,-148.7495C2007.3026,-125.3576 1965.4808,-90.4617 1937.4998,-67.1145"/>
<polygon fill="#000000" stroke="#000000" points="2033.2493,-151.5657 2043.1698,-155.285 2037.7339,-146.1909 2033.2493,-151.5657"/>
<polygon fill="#000000" stroke="#000000" points="1939.5653,-64.2796 1929.6448,-60.5603 1935.0807,-69.6544 1939.5653,-64.2796"/>
</g>
<!-- system_portlink15_int0 -->
<g id="node17" class="node">
<title>system_portlink15_int0</title>
<path fill="#6a6863" stroke="#000000" d="M1932,-155.5C1932,-155.5 1962,-155.5 1962,-155.5 1968,-155.5 1974,-161.5 1974,-167.5 1974,-167.5 1974,-179.5 1974,-179.5 1974,-185.5 1968,-191.5 1962,-191.5 1962,-191.5 1932,-191.5 1932,-191.5 1926,-191.5 1920,-185.5 1920,-179.5 1920,-179.5 1920,-167.5 1920,-167.5 1920,-161.5 1926,-155.5 1932,-155.5"/>
<text text-anchor="middle" x="1947" y="-169.8" font-family="Arial" font-size="14.00" fill="#000000">int0</text>
</g>
<!-- system_portlink15_int0&#45;&gt;system_interface -->
<g id="edge16" class="edge">
<title>system_portlink15_int0&#45;&gt;system_interface</title>
<path fill="none" stroke="#000000" d="M1938.633,-145.3954C1932.0315,-123.2212 1922.8702,-92.4485 1916.289,-70.3425"/>
<polygon fill="#000000" stroke="#000000" points="1935.3693,-146.6994 1941.5772,-155.285 1942.0783,-144.702 1935.3693,-146.6994"/>
<polygon fill="#000000" stroke="#000000" points="1919.5846,-69.1459 1913.3767,-60.5603 1912.8756,-71.1433 1919.5846,-69.1459"/>
</g>
<!-- system_portlink16_int0 -->
<g id="node18" class="node">
<title>system_portlink16_int0</title>
<path fill="#6a6863" stroke="#000000" d="M1854,-155.5C1854,-155.5 1884,-155.5 1884,-155.5 1890,-155.5 1896,-161.5 1896,-167.5 1896,-167.5 1896,-179.5 1896,-179.5 1896,-185.5 1890,-191.5 1884,-191.5 1884,-191.5 1854,-191.5 1854,-191.5 1848,-191.5 1842,-185.5 1842,-179.5 1842,-179.5 1842,-167.5 1842,-167.5 1842,-161.5 1848,-155.5 1854,-155.5"/>
<text text-anchor="middle" x="1869" y="-169.8" font-family="Arial" font-size="14.00" fill="#000000">int0</text>
</g>
<!-- system_portlink16_int0&#45;&gt;system_interface -->
<g id="edge17" class="edge">
<title>system_portlink16_int0&#45;&gt;system_interface</title>
<path fill="none" stroke="#000000" d="M1877.367,-145.3954C1883.9685,-123.2212 1893.1298,-92.4485 1899.711,-70.3425"/>
<polygon fill="#000000" stroke="#000000" points="1873.9217,-144.702 1874.4228,-155.285 1880.6307,-146.6994 1873.9217,-144.702"/>
<polygon fill="#000000" stroke="#000000" points="1903.1244,-71.1433 1902.6233,-60.5603 1896.4154,-69.1459 1903.1244,-71.1433"/>
</g>
<!-- system_portlink17_int0 -->
<g id="node19" class="node">
<title>system_portlink17_int0</title>
<path fill="#6a6863" stroke="#000000" d="M1736,-155.5C1736,-155.5 1766,-155.5 1766,-155.5 1772,-155.5 1778,-161.5 1778,-167.5 1778,-167.5 1778,-179.5 1778,-179.5 1778,-185.5 1772,-191.5 1766,-191.5 1766,-191.5 1736,-191.5 1736,-191.5 1730,-191.5 1724,-185.5 1724,-179.5 1724,-179.5 1724,-167.5 1724,-167.5 1724,-161.5 1730,-155.5 1736,-155.5"/>
<text text-anchor="middle" x="1751" y="-169.8" font-family="Arial" font-size="14.00" fill="#000000">int0</text>
</g>
<!-- system_portlink17_int0&#45;&gt;system_interface -->
<g id="edge18" class="edge">
<title>system_portlink17_int0&#45;&gt;system_interface</title>
<path fill="none" stroke="#000000" d="M1780.6629,-148.7495C1808.6974,-125.3576 1850.5192,-90.4617 1878.5002,-67.1145"/>
<polygon fill="#000000" stroke="#000000" points="1778.2661,-146.1909 1772.8302,-155.285 1782.7507,-151.5657 1778.2661,-146.1909"/>
<polygon fill="#000000" stroke="#000000" points="1880.9193,-69.6544 1886.3552,-60.5603 1876.4347,-64.2796 1880.9193,-69.6544"/>
</g>
<!-- system_portlink18_int0 -->
<g id="node20" class="node">
<title>system_portlink18_int0</title>
<path fill="#6a6863" stroke="#000000" d="M1618,-155.5C1618,-155.5 1648,-155.5 1648,-155.5 1654,-155.5 1660,-161.5 1660,-167.5 1660,-167.5 1660,-179.5 1660,-179.5 1660,-185.5 1654,-191.5 1648,-191.5 1648,-191.5 1618,-191.5 1618,-191.5 1612,-191.5 1606,-185.5 1606,-179.5 1606,-179.5 1606,-167.5 1606,-167.5 1606,-161.5 1612,-155.5 1618,-155.5"/>
<text text-anchor="middle" x="1633" y="-169.8" font-family="Arial" font-size="14.00" fill="#000000">int0</text>
</g>
<!-- system_portlink18_int0&#45;&gt;system_interface -->
<g id="edge19" class="edge">
<title>system_portlink18_int0&#45;&gt;system_interface</title>
<path fill="none" stroke="#000000" d="M1666.8039,-150.0048C1668.544,-148.9614 1670.2823,-147.9537 1672,-147 1735.7727,-111.5925 1813.8668,-78.961 1862.2829,-59.8919"/>
<polygon fill="#000000" stroke="#000000" points="1664.7774,-147.1446 1658.1768,-155.4321 1668.5049,-153.0696 1664.7774,-147.1446"/>
<polygon fill="#000000" stroke="#000000" points="1863.8155,-63.0506 1871.8526,-56.1473 1861.2647,-56.5319 1863.8155,-63.0506"/>
</g>
<!-- system_portlink19_int0 -->
<g id="node21" class="node">
<title>system_portlink19_int0</title>
<path fill="#6a6863" stroke="#000000" d="M1500,-155.5C1500,-155.5 1530,-155.5 1530,-155.5 1536,-155.5 1542,-161.5 1542,-167.5 1542,-167.5 1542,-179.5 1542,-179.5 1542,-185.5 1536,-191.5 1530,-191.5 1530,-191.5 1500,-191.5 1500,-191.5 1494,-191.5 1488,-185.5 1488,-179.5 1488,-179.5 1488,-167.5 1488,-167.5 1488,-161.5 1494,-155.5 1500,-155.5"/>
<text text-anchor="middle" x="1515" y="-169.8" font-family="Arial" font-size="14.00" fill="#000000">int0</text>
</g>
<!-- system_portlink19_int0&#45;&gt;system_interface -->
<g id="edge20" class="edge">
<title>system_portlink19_int0&#45;&gt;system_interface</title>
<path fill="none" stroke="#000000" d="M1547.8553,-150.1682C1549.8988,-149.0342 1551.9559,-147.9672 1554,-147 1658.819,-97.4052 1792.3347,-65.7092 1861.6015,-51.3888"/>
<polygon fill="#000000" stroke="#000000" points="1545.8224,-147.3069 1539.0659,-155.4678 1549.4369,-153.3016 1545.8224,-147.3069"/>
<polygon fill="#000000" stroke="#000000" points="1862.6489,-54.7474 1871.7484,-49.3207 1861.2508,-47.8884 1862.6489,-54.7474"/>
</g>
<!-- system_portlink20_int0 -->
<g id="node22" class="node">
<title>system_portlink20_int0</title>
<path fill="#6a6863" stroke="#000000" d="M1382,-155.5C1382,-155.5 1412,-155.5 1412,-155.5 1418,-155.5 1424,-161.5 1424,-167.5 1424,-167.5 1424,-179.5 1424,-179.5 1424,-185.5 1418,-191.5 1412,-191.5 1412,-191.5 1382,-191.5 1382,-191.5 1376,-191.5 1370,-185.5 1370,-179.5 1370,-179.5 1370,-167.5 1370,-167.5 1370,-161.5 1376,-155.5 1382,-155.5"/>
<text text-anchor="middle" x="1397" y="-169.8" font-family="Arial" font-size="14.00" fill="#000000">int0</text>
</g>
<!-- system_portlink20_int0&#45;&gt;system_interface -->
<g id="edge21" class="edge">
<title>system_portlink20_int0&#45;&gt;system_interface</title>
<path fill="none" stroke="#000000" d="M1429.5964,-150.0946C1431.7188,-148.9666 1433.8626,-147.9223 1436,-147 1583.9166,-83.1755 1775.3734,-56.3125 1861.9207,-46.8655"/>
<polygon fill="#000000" stroke="#000000" points="1427.3468,-147.3582 1420.5146,-155.4558 1430.9053,-153.3862 1427.3468,-147.3582"/>
<polygon fill="#000000" stroke="#000000" points="1862.3718,-50.3374 1871.9452,-45.7985 1861.6308,-43.3767 1862.3718,-50.3374"/>
</g>
<!-- system_portlink21_int0 -->
<g id="node23" class="node">
<title>system_portlink21_int0</title>
<path fill="#6a6863" stroke="#000000" d="M1264,-155.5C1264,-155.5 1294,-155.5 1294,-155.5 1300,-155.5 1306,-161.5 1306,-167.5 1306,-167.5 1306,-179.5 1306,-179.5 1306,-185.5 1300,-191.5 1294,-191.5 1294,-191.5 1264,-191.5 1264,-191.5 1258,-191.5 1252,-185.5 1252,-179.5 1252,-179.5 1252,-167.5 1252,-167.5 1252,-161.5 1258,-155.5 1264,-155.5"/>
<text text-anchor="middle" x="1279" y="-169.8" font-family="Arial" font-size="14.00" fill="#000000">int0</text>
</g>
<!-- system_portlink21_int0&#45;&gt;system_interface -->
<g id="edge22" class="edge">
<title>system_portlink21_int0&#45;&gt;system_interface</title>
<path fill="none" stroke="#000000" d="M1311.551,-149.9862C1313.6848,-148.8854 1315.8434,-147.8766 1318,-147 1509.7337,-69.0678 1759.8113,-49.1514 1861.735,-44.1451"/>
<polygon fill="#000000" stroke="#000000" points="1309.3297,-147.2288 1302.4399,-155.2776 1312.8451,-153.2821 1309.3297,-147.2288"/>
<polygon fill="#000000" stroke="#000000" points="1862.1638,-47.629 1871.9902,-43.6677 1861.8383,-40.6365 1862.1638,-47.629"/>
</g>
<!-- system_portlink22_int0 -->
<g id="node24" class="node">
<title>system_portlink22_int0</title>
<path fill="#6a6863" stroke="#000000" d="M1146,-155.5C1146,-155.5 1176,-155.5 1176,-155.5 1182,-155.5 1188,-161.5 1188,-167.5 1188,-167.5 1188,-179.5 1188,-179.5 1188,-185.5 1182,-191.5 1176,-191.5 1176,-191.5 1146,-191.5 1146,-191.5 1140,-191.5 1134,-185.5 1134,-179.5 1134,-179.5 1134,-167.5 1134,-167.5 1134,-161.5 1140,-155.5 1146,-155.5"/>
<text text-anchor="middle" x="1161" y="-169.8" font-family="Arial" font-size="14.00" fill="#000000">int0</text>
</g>
<!-- system_portlink22_int0&#45;&gt;system_interface -->
<g id="edge23" class="edge">
<title>system_portlink22_int0&#45;&gt;system_interface</title>
<path fill="none" stroke="#000000" d="M1192.8309,-150.2656C1195.1957,-149.0438 1197.5975,-147.9365 1200,-147 1322.1331,-99.3924 1723.9182,-59.2714 1861.3883,-46.6381"/>
<polygon fill="#000000" stroke="#000000" points="1190.8492,-147.3694 1183.9697,-155.4269 1194.3724,-153.4181 1190.8492,-147.3694"/>
<polygon fill="#000000" stroke="#000000" points="1861.9444,-50.102 1871.5847,-45.7071 1861.3078,-43.131 1861.9444,-50.102"/>
</g>
<!-- system_portlink23_int0 -->
<g id="node25" class="node">
<title>system_portlink23_int0</title>
<path fill="#6a6863" stroke="#000000" d="M1028,-155.5C1028,-155.5 1058,-155.5 1058,-155.5 1064,-155.5 1070,-161.5 1070,-167.5 1070,-167.5 1070,-179.5 1070,-179.5 1070,-185.5 1064,-191.5 1058,-191.5 1058,-191.5 1028,-191.5 1028,-191.5 1022,-191.5 1016,-185.5 1016,-179.5 1016,-179.5 1016,-167.5 1016,-167.5 1016,-161.5 1022,-155.5 1028,-155.5"/>
<text text-anchor="middle" x="1043" y="-169.8" font-family="Arial" font-size="14.00" fill="#000000">int0</text>
</g>
<!-- system_portlink23_int0&#45;&gt;system_interface -->
<g id="edge24" class="edge">
<title>system_portlink23_int0&#45;&gt;system_interface</title>
<path fill="none" stroke="#000000" d="M1074.8089,-150.2081C1077.179,-149.0001 1079.5879,-147.9116 1082,-147 1227.0821,-92.1694 1709.3663,-55.8321 1861.5622,-45.5131"/>
<polygon fill="#000000" stroke="#000000" points="1072.8408,-147.303 1065.9358,-155.3387 1076.3448,-153.3629 1072.8408,-147.303"/>
<polygon fill="#000000" stroke="#000000" points="1862.198,-48.9783 1871.9406,-44.8152 1861.7283,-41.9941 1862.198,-48.9783"/>
</g>
<!-- system_portlink24_int0 -->
<g id="node26" class="node">
<title>system_portlink24_int0</title>
<path fill="#6a6863" stroke="#000000" d="M910,-155.5C910,-155.5 940,-155.5 940,-155.5 946,-155.5 952,-161.5 952,-167.5 952,-167.5 952,-179.5 952,-179.5 952,-185.5 946,-191.5 940,-191.5 940,-191.5 910,-191.5 910,-191.5 904,-191.5 898,-185.5 898,-179.5 898,-179.5 898,-167.5 898,-167.5 898,-161.5 904,-155.5 910,-155.5"/>
<text text-anchor="middle" x="925" y="-169.8" font-family="Arial" font-size="14.00" fill="#000000">int0</text>
</g>
<!-- system_portlink24_int0&#45;&gt;system_interface -->
<g id="edge25" class="edge">
<title>system_portlink24_int0&#45;&gt;system_interface</title>
<path fill="none" stroke="#000000" d="M956.7926,-150.1647C959.1666,-148.967 961.5809,-147.8928 964,-147 1132.1139,-84.9587 1695.25,-52.938 1861.447,-44.6839"/>
<polygon fill="#000000" stroke="#000000" points="954.8351,-147.2528 947.9109,-155.272 958.3246,-153.3211 954.8351,-147.2528"/>
<polygon fill="#000000" stroke="#000000" points="1861.9956,-48.1613 1871.8117,-44.1745 1861.6519,-41.1697 1861.9956,-48.1613"/>
</g>
<!-- system_portlink25_int0 -->
<g id="node27" class="node">
<title>system_portlink25_int0</title>
<path fill="#6a6863" stroke="#000000" d="M792,-155.5C792,-155.5 822,-155.5 822,-155.5 828,-155.5 834,-161.5 834,-167.5 834,-167.5 834,-179.5 834,-179.5 834,-185.5 828,-191.5 822,-191.5 822,-191.5 792,-191.5 792,-191.5 786,-191.5 780,-185.5 780,-179.5 780,-179.5 780,-167.5 780,-167.5 780,-161.5 786,-155.5 792,-155.5"/>
<text text-anchor="middle" x="807" y="-169.8" font-family="Arial" font-size="14.00" fill="#000000">int0</text>
</g>
<!-- system_portlink25_int0&#45;&gt;system_interface -->
<g id="edge26" class="edge">
<title>system_portlink25_int0&#45;&gt;system_interface</title>
<path fill="none" stroke="#000000" d="M838.3209,-150.3623C840.8453,-149.0791 843.4192,-147.9346 846,-147 1037.394,-77.6873 1682.7221,-50.3702 1861.6552,-44.0234"/>
<polygon fill="#000000" stroke="#000000" points="836.369,-147.4482 829.4715,-155.4903 839.8786,-153.5048 836.369,-147.4482"/>
<polygon fill="#000000" stroke="#000000" points="1861.9144,-47.5165 1871.7859,-43.6689 1861.6696,-40.5208 1861.9144,-47.5165"/>
</g>
<!-- system_portlink26_int0 -->
<g id="node28" class="node">
<title>system_portlink26_int0</title>
<path fill="#6a6863" stroke="#000000" d="M674,-155.5C674,-155.5 704,-155.5 704,-155.5 710,-155.5 716,-161.5 716,-167.5 716,-167.5 716,-179.5 716,-179.5 716,-185.5 710,-191.5 704,-191.5 704,-191.5 674,-191.5 674,-191.5 668,-191.5 662,-185.5 662,-179.5 662,-179.5 662,-167.5 662,-167.5 662,-161.5 668,-155.5 674,-155.5"/>
<text text-anchor="middle" x="689" y="-169.8" font-family="Arial" font-size="14.00" fill="#000000">int0</text>
</g>
<!-- system_portlink26_int0&#45;&gt;system_interface -->
<g id="edge27" class="edge">
<title>system_portlink26_int0&#45;&gt;system_interface</title>
<path fill="none" stroke="#000000" d="M720.3106,-150.3338C722.8374,-149.0572 725.4146,-147.922 728,-147 942.7145,-70.4244 1670.4156,-48.1086 1861.6499,-43.5019"/>
<polygon fill="#000000" stroke="#000000" points="718.365,-147.4156 711.4563,-155.4481 721.8662,-153.4771 718.365,-147.4156"/>
<polygon fill="#000000" stroke="#000000" points="1861.9992,-46.9947 1871.9137,-43.2593 1861.8338,-39.9967 1861.9992,-46.9947"/>
</g>
<!-- system_portlink27_int0 -->
<g id="node29" class="node">
<title>system_portlink27_int0</title>
<path fill="#6a6863" stroke="#000000" d="M556,-155.5C556,-155.5 586,-155.5 586,-155.5 592,-155.5 598,-161.5 598,-167.5 598,-167.5 598,-179.5 598,-179.5 598,-185.5 592,-191.5 586,-191.5 586,-191.5 556,-191.5 556,-191.5 550,-191.5 544,-185.5 544,-179.5 544,-179.5 544,-167.5 544,-167.5 544,-161.5 550,-155.5 556,-155.5"/>
<text text-anchor="middle" x="571" y="-169.8" font-family="Arial" font-size="14.00" fill="#000000">int0</text>
</g>
<!-- system_portlink27_int0&#45;&gt;system_interface -->
<g id="edge28" class="edge">
<title>system_portlink27_int0&#45;&gt;system_interface</title>
<path fill="none" stroke="#000000" d="M602.3023,-150.3104C604.8311,-149.0392 607.411,-147.9117 610,-147 848.1547,-63.1361 1658.8843,-46.0631 1861.7102,-43.0731"/>
<polygon fill="#000000" stroke="#000000" points="600.3619,-147.3889 593.4441,-155.4135 603.8562,-153.4544 600.3619,-147.3889"/>
<polygon fill="#000000" stroke="#000000" points="1861.7835,-46.5725 1871.7323,-42.9296 1861.6832,-39.5732 1861.7835,-46.5725"/>
</g>
<!-- system_portlink28_int0 -->
<g id="node30" class="node">
<title>system_portlink28_int0</title>
<path fill="#6a6863" stroke="#000000" d="M438,-155.5C438,-155.5 468,-155.5 468,-155.5 474,-155.5 480,-161.5 480,-167.5 480,-167.5 480,-179.5 480,-179.5 480,-185.5 474,-191.5 468,-191.5 468,-191.5 438,-191.5 438,-191.5 432,-191.5 426,-185.5 426,-179.5 426,-179.5 426,-167.5 426,-167.5 426,-161.5 432,-155.5 438,-155.5"/>
<text text-anchor="middle" x="453" y="-169.8" font-family="Arial" font-size="14.00" fill="#000000">int0</text>
</g>
<!-- system_portlink28_int0&#45;&gt;system_interface -->
<g id="edge29" class="edge">
<title>system_portlink28_int0&#45;&gt;system_interface</title>
<path fill="none" stroke="#000000" d="M484.2955,-150.2908C486.8258,-149.0242 489.4079,-147.9031 492,-147 753.5348,-55.8821 1646.915,-44.2102 1861.4206,-42.7181"/>
<polygon fill="#000000" stroke="#000000" points="482.3594,-147.3666 475.4339,-155.3846 485.8479,-153.4354 482.3594,-147.3666"/>
<polygon fill="#000000" stroke="#000000" points="1861.7208,-46.2163 1871.6977,-42.6509 1861.675,-39.2165 1861.7208,-46.2163"/>
</g>
<!-- system_portlink29_int0 -->
<g id="node31" class="node">
<title>system_portlink29_int0</title>
<path fill="#6a6863" stroke="#000000" d="M320,-155.5C320,-155.5 350,-155.5 350,-155.5 356,-155.5 362,-161.5 362,-167.5 362,-167.5 362,-179.5 362,-179.5 362,-185.5 356,-191.5 350,-191.5 350,-191.5 320,-191.5 320,-191.5 314,-191.5 308,-185.5 308,-179.5 308,-179.5 308,-167.5 308,-167.5 308,-161.5 314,-155.5 320,-155.5"/>
<text text-anchor="middle" x="335" y="-169.8" font-family="Arial" font-size="14.00" fill="#000000">int0</text>
</g>
<!-- system_portlink29_int0&#45;&gt;system_interface -->
<g id="edge30" class="edge">
<title>system_portlink29_int0&#45;&gt;system_interface</title>
<path fill="none" stroke="#000000" d="M366.2897,-150.2742C368.8214,-149.0115 371.4054,-147.8957 374,-147 517.7375,-97.3771 1620.9189,-53.3009 1861.688,-44.2113"/>
<polygon fill="#000000" stroke="#000000" points="364.3574,-147.3477 357.4254,-155.3601 367.841,-153.4193 364.3574,-147.3477"/>
<polygon fill="#000000" stroke="#000000" points="1861.9868,-47.7027 1871.8482,-43.8293 1861.7237,-40.7076 1861.9868,-47.7027"/>
</g>
<!-- system_portlink30_int0 -->
<g id="node32" class="node">
<title>system_portlink30_int0</title>
<path fill="#6a6863" stroke="#000000" d="M202,-155.5C202,-155.5 232,-155.5 232,-155.5 238,-155.5 244,-161.5 244,-167.5 244,-167.5 244,-179.5 244,-179.5 244,-185.5 238,-191.5 232,-191.5 232,-191.5 202,-191.5 202,-191.5 196,-191.5 190,-185.5 190,-179.5 190,-179.5 190,-167.5 190,-167.5 190,-161.5 196,-155.5 202,-155.5"/>
<text text-anchor="middle" x="217" y="-169.8" font-family="Arial" font-size="14.00" fill="#000000">int0</text>
</g>
<!-- system_portlink30_int0&#45;&gt;system_interface -->
<g id="edge31" class="edge">
<title>system_portlink30_int0&#45;&gt;system_interface</title>
<path fill="none" stroke="#000000" d="M248.2848,-150.2599C250.8176,-149.0005 253.4032,-147.8895 256,-147 411.537,-93.7249 1609.0441,-52.1936 1861.4072,-43.9804"/>
<polygon fill="#000000" stroke="#000000" points="246.3557,-147.3314 239.4182,-155.3391 249.8351,-153.4054 246.3557,-147.3314"/>
<polygon fill="#000000" stroke="#000000" points="1861.8094,-47.4692 1871.6908,-43.6471 1861.5827,-40.4729 1861.8094,-47.4692"/>
</g>
<!-- system_portlink31_int0 -->
<g id="node33" class="node">
<title>system_portlink31_int0</title>
<path fill="#6a6863" stroke="#000000" d="M84,-155.5C84,-155.5 114,-155.5 114,-155.5 120,-155.5 126,-161.5 126,-167.5 126,-167.5 126,-179.5 126,-179.5 126,-185.5 120,-191.5 114,-191.5 114,-191.5 84,-191.5 84,-191.5 78,-191.5 72,-185.5 72,-179.5 72,-179.5 72,-167.5 72,-167.5 72,-161.5 78,-155.5 84,-155.5"/>
<text text-anchor="middle" x="99" y="-169.8" font-family="Arial" font-size="14.00" fill="#000000">int0</text>
</g>
<!-- system_portlink31_int0&#45;&gt;system_interface -->
<g id="edge32" class="edge">
<title>system_portlink31_int0&#45;&gt;system_interface</title>
<path fill="none" stroke="#000000" d="M130.2806,-150.2476C132.8144,-148.9911 135.4014,-147.884 138,-147 305.4348,-90.0423 1598.6749,-51.1326 1861.4871,-43.7686"/>
<polygon fill="#000000" stroke="#000000" points="128.3542,-147.3173 121.412,-155.3208 131.83,-153.3934 128.3542,-147.3173"/>
<polygon fill="#000000" stroke="#000000" points="1861.9177,-47.258 1871.8162,-43.4806 1861.7225,-40.2608 1861.9177,-47.258"/>
</g>
</g>
</svg>
