<?xml version="1.0" encoding="UTF-8" standalone="no"?>
<!DOCTYPE svg PUBLIC "-//W3C//DTD SVG 1.1//EN"
 "http://www.w3.org/Graphics/SVG/1.1/DTD/svg11.dtd">
<!-- Generated by graphviz version 2.40.1 (20161225.0304)
 -->
<!-- Title: G Pages: 1 -->
<svg width="1936pt" height="346pt"
 viewBox="0.00 0.00 1936.00 346.00" xmlns="http://www.w3.org/2000/svg" xmlns:xlink="http://www.w3.org/1999/xlink">
<g id="graph0" class="graph" transform="scale(1 1) rotate(0) translate(4 342)">
<title>G</title>
<polygon fill="#ffffff" stroke="transparent" points="-4,4 -4,-342 1932,-342 1932,4 -4,4"/>
<g id="clust1" class="cluster">
<title>cluster_root</title>
<g id="a_clust1"><a xlink:title="eventq_index=0&#10;full_system=true&#10;sim_quantum=0&#10;time_sync_enable=false&#10;time_sync_period=100000000000&#10;time_sync_spin_threshold=100000000">
<path fill="#bab6ae" stroke="#000000" d="M20,-8C20,-8 1908,-8 1908,-8 1914,-8 1920,-14 1920,-20 1920,-20 1920,-318 1920,-318 1920,-324 1914,-330 1908,-330 1908,-330 20,-330 20,-330 14,-330 8,-324 8,-318 8,-318 8,-20 8,-20 8,-14 14,-8 20,-8"/>
<text text-anchor="middle" x="964" y="-314.8" font-family="Arial" font-size="14.00" fill="#000000">root </text>
<text text-anchor="middle" x="964" y="-299.8" font-family="Arial" font-size="14.00" fill="#000000">: Root</text>
</a>
</g>
</g>
<g id="clust2" class="cluster">
<title>cluster_system</title>
<g id="a_clust2"><a xlink:title="delay=0&#10;delay_var=0&#10;dump=Null&#10;eventq_index=0&#10;fabric_speed=800.000000&#10;output_buffer_size=1048576&#10;time_to_live=10000000000">
<path fill="#9f9c95" stroke="#000000" d="M28,-16C28,-16 1900,-16 1900,-16 1906,-16 1912,-22 1912,-28 1912,-28 1912,-272 1912,-272 1912,-278 1906,-284 1900,-284 1900,-284 28,-284 28,-284 22,-284 16,-278 16,-272 16,-272 16,-28 16,-28 16,-22 22,-16 28,-16"/>
<text text-anchor="middle" x="964" y="-268.8" font-family="Arial" font-size="14.00" fill="#000000">system </text>
<text text-anchor="middle" x="964" y="-253.8" font-family="Arial" font-size="14.00" fill="#000000">: EtherSwitch</text>
</a>
</g>
</g>
<g id="clust3" class="cluster">
<title>cluster_system_portlink00</title>
<g id="a_clust3"><a xlink:title="delay=500000&#10;delay_var=0&#10;dist_rank=0&#10;dist_size=16&#10;dist_sync_on_pseudo_op=false&#10;dump=Null&#10;eventq_index=0&#10;is_switch=true&#10;&#10;um_nodes=16&#10;server_name=127.0.0.1&#10;server_port=2200&#10;speed=800.000000&#10;sync_repeat=500000&#10;sync_start=0">
<path fill="#84827c" stroke="#000000" d="M1806,-147C1806,-147 1892,-147 1892,-147 1898,-147 1904,-153 1904,-159 1904,-159 1904,-226 1904,-226 1904,-232 1898,-238 1892,-238 1892,-238 1806,-238 1806,-238 1800,-238 1794,-232 1794,-226 1794,-226 1794,-159 1794,-159 1794,-153 1800,-147 1806,-147"/>
<text text-anchor="middle" x="1849" y="-222.8" font-family="Arial" font-size="14.00" fill="#000000">portlink00 </text>
<text text-anchor="middle" x="1849" y="-207.8" font-family="Arial" font-size="14.00" fill="#000000">: DistEtherLink</text>
</a>
</g>
</g>
<g id="clust4" class="cluster">
<title>cluster_system_portlink01</title>
<g id="a_clust4"><a xlink:title="delay=500000&#10;delay_var=0&#10;dist_rank=0&#10;dist_size=16&#10;dist_sync_on_pseudo_op=false&#10;dump=Null&#10;eventq_index=0&#10;is_switch=true&#10;&#10;um_nodes=16&#10;server_name=127.0.0.1&#10;server_port=2200&#10;speed=800.000000&#10;sync_repeat=500000&#10;sync_start=0">
<path fill="#84827c" stroke="#000000" d="M1688,-147C1688,-147 1774,-147 1774,-147 1780,-147 1786,-153 1786,-159 1786,-159 1786,-226 1786,-226 1786,-232 1780,-238 1774,-238 1774,-238 1688,-238 1688,-238 1682,-238 1676,-232 1676,-226 1676,-226 1676,-159 1676,-159 1676,-153 1682,-147 1688,-147"/>
<text text-anchor="middle" x="1731" y="-222.8" font-family="Arial" font-size="14.00" fill="#000000">portlink01 </text>
<text text-anchor="middle" x="1731" y="-207.8" font-family="Arial" font-size="14.00" fill="#000000">: DistEtherLink</text>
</a>
</g>
</g>
<g id="clust5" class="cluster">
<title>cluster_system_portlink02</title>
<g id="a_clust5"><a xlink:title="delay=500000&#10;delay_var=0&#10;dist_rank=0&#10;dist_size=16&#10;dist_sync_on_pseudo_op=false&#10;dump=Null&#10;eventq_index=0&#10;is_switch=true&#10;&#10;um_nodes=16&#10;server_name=127.0.0.1&#10;server_port=2200&#10;speed=800.000000&#10;sync_repeat=500000&#10;sync_start=0">
<path fill="#84827c" stroke="#000000" d="M1570,-147C1570,-147 1656,-147 1656,-147 1662,-147 1668,-153 1668,-159 1668,-159 1668,-226 1668,-226 1668,-232 1662,-238 1656,-238 1656,-238 1570,-238 1570,-238 1564,-238 1558,-232 1558,-226 1558,-226 1558,-159 1558,-159 1558,-153 1564,-147 1570,-147"/>
<text text-anchor="middle" x="1613" y="-222.8" font-family="Arial" font-size="14.00" fill="#000000">portlink02 </text>
<text text-anchor="middle" x="1613" y="-207.8" font-family="Arial" font-size="14.00" fill="#000000">: DistEtherLink</text>
</a>
</g>
</g>
<g id="clust6" class="cluster">
<title>cluster_system_portlink03</title>
<g id="a_clust6"><a xlink:title="delay=500000&#10;delay_var=0&#10;dist_rank=0&#10;dist_size=16&#10;dist_sync_on_pseudo_op=false&#10;dump=Null&#10;eventq_index=0&#10;is_switch=true&#10;&#10;um_nodes=16&#10;server_name=127.0.0.1&#10;server_port=2200&#10;speed=800.000000&#10;sync_repeat=500000&#10;sync_start=0">
<path fill="#84827c" stroke="#000000" d="M1452,-147C1452,-147 1538,-147 1538,-147 1544,-147 1550,-153 1550,-159 1550,-159 1550,-226 1550,-226 1550,-232 1544,-238 1538,-238 1538,-238 1452,-238 1452,-238 1446,-238 1440,-232 1440,-226 1440,-226 1440,-159 1440,-159 1440,-153 1446,-147 1452,-147"/>
<text text-anchor="middle" x="1495" y="-222.8" font-family="Arial" font-size="14.00" fill="#000000">portlink03 </text>
<text text-anchor="middle" x="1495" y="-207.8" font-family="Arial" font-size="14.00" fill="#000000">: DistEtherLink</text>
</a>
</g>
</g>
<g id="clust7" class="cluster">
<title>cluster_system_portlink04</title>
<g id="a_clust7"><a xlink:title="delay=500000&#10;delay_var=0&#10;dist_rank=0&#10;dist_size=16&#10;dist_sync_on_pseudo_op=false&#10;dump=Null&#10;eventq_index=0&#10;is_switch=true&#10;&#10;um_nodes=16&#10;server_name=127.0.0.1&#10;server_port=2200&#10;speed=800.000000&#10;sync_repeat=500000&#10;sync_start=0">
<path fill="#84827c" stroke="#000000" d="M1334,-147C1334,-147 1420,-147 1420,-147 1426,-147 1432,-153 1432,-159 1432,-159 1432,-226 1432,-226 1432,-232 1426,-238 1420,-238 1420,-238 1334,-238 1334,-238 1328,-238 1322,-232 1322,-226 1322,-226 1322,-159 1322,-159 1322,-153 1328,-147 1334,-147"/>
<text text-anchor="middle" x="1377" y="-222.8" font-family="Arial" font-size="14.00" fill="#000000">portlink04 </text>
<text text-anchor="middle" x="1377" y="-207.8" font-family="Arial" font-size="14.00" fill="#000000">: DistEtherLink</text>
</a>
</g>
</g>
<g id="clust8" class="cluster">
<title>cluster_system_portlink05</title>
<g id="a_clust8"><a xlink:title="delay=500000&#10;delay_var=0&#10;dist_rank=0&#10;dist_size=16&#10;dist_sync_on_pseudo_op=false&#10;dump=Null&#10;eventq_index=0&#10;is_switch=true&#10;&#10;um_nodes=16&#10;server_name=127.0.0.1&#10;server_port=2200&#10;speed=800.000000&#10;sync_repeat=500000&#10;sync_start=0">
<path fill="#84827c" stroke="#000000" d="M1216,-147C1216,-147 1302,-147 1302,-147 1308,-147 1314,-153 1314,-159 1314,-159 1314,-226 1314,-226 1314,-232 1308,-238 1302,-238 1302,-238 1216,-238 1216,-238 1210,-238 1204,-232 1204,-226 1204,-226 1204,-159 1204,-159 1204,-153 1210,-147 1216,-147"/>
<text text-anchor="middle" x="1259" y="-222.8" font-family="Arial" font-size="14.00" fill="#000000">portlink05 </text>
<text text-anchor="middle" x="1259" y="-207.8" font-family="Arial" font-size="14.00" fill="#000000">: DistEtherLink</text>
</a>
</g>
</g>
<g id="clust9" class="cluster">
<title>cluster_system_portlink06</title>
<g id="a_clust9"><a xlink:title="delay=500000&#10;delay_var=0&#10;dist_rank=0&#10;dist_size=16&#10;dist_sync_on_pseudo_op=false&#10;dump=Null&#10;eventq_index=0&#10;is_switch=true&#10;&#10;um_nodes=16&#10;server_name=127.0.0.1&#10;server_port=2200&#10;speed=800.000000&#10;sync_repeat=500000&#10;sync_start=0">
<path fill="#84827c" stroke="#000000" d="M1098,-147C1098,-147 1184,-147 1184,-147 1190,-147 1196,-153 1196,-159 1196,-159 1196,-226 1196,-226 1196,-232 1190,-238 1184,-238 1184,-238 1098,-238 1098,-238 1092,-238 1086,-232 1086,-226 1086,-226 1086,-159 1086,-159 1086,-153 1092,-147 1098,-147"/>
<text text-anchor="middle" x="1141" y="-222.8" font-family="Arial" font-size="14.00" fill="#000000">portlink06 </text>
<text text-anchor="middle" x="1141" y="-207.8" font-family="Arial" font-size="14.00" fill="#000000">: DistEtherLink</text>
</a>
</g>
</g>
<g id="clust10" class="cluster">
<title>cluster_system_portlink07</title>
<g id="a_clust10"><a xlink:title="delay=500000&#10;delay_var=0&#10;dist_rank=0&#10;dist_size=16&#10;dist_sync_on_pseudo_op=false&#10;dump=Null&#10;eventq_index=0&#10;is_switch=true&#10;&#10;um_nodes=16&#10;server_name=127.0.0.1&#10;server_port=2200&#10;speed=800.000000&#10;sync_repeat=500000&#10;sync_start=0">
<path fill="#84827c" stroke="#000000" d="M980,-147C980,-147 1066,-147 1066,-147 1072,-147 1078,-153 1078,-159 1078,-159 1078,-226 1078,-226 1078,-232 1072,-238 1066,-238 1066,-238 980,-238 980,-238 974,-238 968,-232 968,-226 968,-226 968,-159 968,-159 968,-153 974,-147 980,-147"/>
<text text-anchor="middle" x="1023" y="-222.8" font-family="Arial" font-size="14.00" fill="#000000">portlink07 </text>
<text text-anchor="middle" x="1023" y="-207.8" font-family="Arial" font-size="14.00" fill="#000000">: DistEtherLink</text>
</a>
</g>
</g>
<g id="clust11" class="cluster">
<title>cluster_system_portlink08</title>
<g id="a_clust11"><a xlink:title="delay=500000&#10;delay_var=0&#10;dist_rank=0&#10;dist_size=16&#10;dist_sync_on_pseudo_op=false&#10;dump=Null&#10;eventq_index=0&#10;is_switch=true&#10;&#10;um_nodes=16&#10;server_name=127.0.0.1&#10;server_port=2200&#10;speed=800.000000&#10;sync_repeat=500000&#10;sync_start=0">
<path fill="#84827c" stroke="#000000" d="M862,-147C862,-147 948,-147 948,-147 954,-147 960,-153 960,-159 960,-159 960,-226 960,-226 960,-232 954,-238 948,-238 948,-238 862,-238 862,-238 856,-238 850,-232 850,-226 850,-226 850,-159 850,-159 850,-153 856,-147 862,-147"/>
<text text-anchor="middle" x="905" y="-222.8" font-family="Arial" font-size="14.00" fill="#000000">portlink08 </text>
<text text-anchor="middle" x="905" y="-207.8" font-family="Arial" font-size="14.00" fill="#000000">: DistEtherLink</text>
</a>
</g>
</g>
<g id="clust12" class="cluster">
<title>cluster_system_portlink09</title>
<g id="a_clust12"><a xlink:title="delay=500000&#10;delay_var=0&#10;dist_rank=0&#10;dist_size=16&#10;dist_sync_on_pseudo_op=false&#10;dump=Null&#10;eventq_index=0&#10;is_switch=true&#10;&#10;um_nodes=16&#10;server_name=127.0.0.1&#10;server_port=2200&#10;speed=800.000000&#10;sync_repeat=500000&#10;sync_start=0">
<path fill="#84827c" stroke="#000000" d="M744,-147C744,-147 830,-147 830,-147 836,-147 842,-153 842,-159 842,-159 842,-226 842,-226 842,-232 836,-238 830,-238 830,-238 744,-238 744,-238 738,-238 732,-232 732,-226 732,-226 732,-159 732,-159 732,-153 738,-147 744,-147"/>
<text text-anchor="middle" x="787" y="-222.8" font-family="Arial" font-size="14.00" fill="#000000">portlink09 </text>
<text text-anchor="middle" x="787" y="-207.8" font-family="Arial" font-size="14.00" fill="#000000">: DistEtherLink</text>
</a>
</g>
</g>
<g id="clust13" class="cluster">
<title>cluster_system_portlink10</title>
<g id="a_clust13"><a xlink:title="delay=500000&#10;delay_var=0&#10;dist_rank=0&#10;dist_size=16&#10;dist_sync_on_pseudo_op=false&#10;dump=Null&#10;eventq_index=0&#10;is_switch=true&#10;&#10;um_nodes=16&#10;server_name=127.0.0.1&#10;server_port=2200&#10;speed=800.000000&#10;sync_repeat=500000&#10;sync_start=0">
<path fill="#84827c" stroke="#000000" d="M626,-147C626,-147 712,-147 712,-147 718,-147 724,-153 724,-159 724,-159 724,-226 724,-226 724,-232 718,-238 712,-238 712,-238 626,-238 626,-238 620,-238 614,-232 614,-226 614,-226 614,-159 614,-159 614,-153 620,-147 626,-147"/>
<text text-anchor="middle" x="669" y="-222.8" font-family="Arial" font-size="14.00" fill="#000000">portlink10 </text>
<text text-anchor="middle" x="669" y="-207.8" font-family="Arial" font-size="14.00" fill="#000000">: DistEtherLink</text>
</a>
</g>
</g>
<g id="clust14" class="cluster">
<title>cluster_system_portlink11</title>
<g id="a_clust14"><a xlink:title="delay=500000&#10;delay_var=0&#10;dist_rank=0&#10;dist_size=16&#10;dist_sync_on_pseudo_op=false&#10;dump=Null&#10;eventq_index=0&#10;is_switch=true&#10;&#10;um_nodes=16&#10;server_name=127.0.0.1&#10;server_port=2200&#10;speed=800.000000&#10;sync_repeat=500000&#10;sync_start=0">
<path fill="#84827c" stroke="#000000" d="M508,-147C508,-147 594,-147 594,-147 600,-147 606,-153 606,-159 606,-159 606,-226 606,-226 606,-232 600,-238 594,-238 594,-238 508,-238 508,-238 502,-238 496,-232 496,-226 496,-226 496,-159 496,-159 496,-153 502,-147 508,-147"/>
<text text-anchor="middle" x="551" y="-222.8" font-family="Arial" font-size="14.00" fill="#000000">portlink11 </text>
<text text-anchor="middle" x="551" y="-207.8" font-family="Arial" font-size="14.00" fill="#000000">: DistEtherLink</text>
</a>
</g>
</g>
<g id="clust15" class="cluster">
<title>cluster_system_portlink12</title>
<g id="a_clust15"><a xlink:title="delay=500000&#10;delay_var=0&#10;dist_rank=0&#10;dist_size=16&#10;dist_sync_on_pseudo_op=false&#10;dump=Null&#10;eventq_index=0&#10;is_switch=true&#10;&#10;um_nodes=16&#10;server_name=127.0.0.1&#10;server_port=2200&#10;speed=800.000000&#10;sync_repeat=500000&#10;sync_start=0">
<path fill="#84827c" stroke="#000000" d="M390,-147C390,-147 476,-147 476,-147 482,-147 488,-153 488,-159 488,-159 488,-226 488,-226 488,-232 482,-238 476,-238 476,-238 390,-238 390,-238 384,-238 378,-232 378,-226 378,-226 378,-159 378,-159 378,-153 384,-147 390,-147"/>
<text text-anchor="middle" x="433" y="-222.8" font-family="Arial" font-size="14.00" fill="#000000">portlink12 </text>
<text text-anchor="middle" x="433" y="-207.8" font-family="Arial" font-size="14.00" fill="#000000">: DistEtherLink</text>
</a>
</g>
</g>
<g id="clust16" class="cluster">
<title>cluster_system_portlink13</title>
<g id="a_clust16"><a xlink:title="delay=500000&#10;delay_var=0&#10;dist_rank=0&#10;dist_size=16&#10;dist_sync_on_pseudo_op=false&#10;dump=Null&#10;eventq_index=0&#10;is_switch=true&#10;&#10;um_nodes=16&#10;server_name=127.0.0.1&#10;server_port=2200&#10;speed=800.000000&#10;sync_repeat=500000&#10;sync_start=0">
<path fill="#84827c" stroke="#000000" d="M272,-147C272,-147 358,-147 358,-147 364,-147 370,-153 370,-159 370,-159 370,-226 370,-226 370,-232 364,-238 358,-238 358,-238 272,-238 272,-238 266,-238 260,-232 260,-226 260,-226 260,-159 260,-159 260,-153 266,-147 272,-147"/>
<text text-anchor="middle" x="315" y="-222.8" font-family="Arial" font-size="14.00" fill="#000000">portlink13 </text>
<text text-anchor="middle" x="315" y="-207.8" font-family="Arial" font-size="14.00" fill="#000000">: DistEtherLink</text>
</a>
</g>
</g>
<g id="clust17" class="cluster">
<title>cluster_system_portlink14</title>
<g id="a_clust17"><a xlink:title="delay=500000&#10;delay_var=0&#10;dist_rank=0&#10;dist_size=16&#10;dist_sync_on_pseudo_op=false&#10;dump=Null&#10;eventq_index=0&#10;is_switch=true&#10;&#10;um_nodes=16&#10;server_name=127.0.0.1&#10;server_port=2200&#10;speed=800.000000&#10;sync_repeat=500000&#10;sync_start=0">
<path fill="#84827c" stroke="#000000" d="M154,-147C154,-147 240,-147 240,-147 246,-147 252,-153 252,-159 252,-159 252,-226 252,-226 252,-232 246,-238 240,-238 240,-238 154,-238 154,-238 148,-238 142,-232 142,-226 142,-226 142,-159 142,-159 142,-153 148,-147 154,-147"/>
<text text-anchor="middle" x="197" y="-222.8" font-family="Arial" font-size="14.00" fill="#000000">portlink14 </text>
<text text-anchor="middle" x="197" y="-207.8" font-family="Arial" font-size="14.00" fill="#000000">: DistEtherLink</text>
</a>
</g>
</g>
<g id="clust18" class="cluster">
<title>cluster_system_portlink15</title>
<g id="a_clust18"><a xlink:title="delay=500000&#10;delay_var=0&#10;dist_rank=0&#10;dist_size=16&#10;dist_sync_on_pseudo_op=false&#10;dump=Null&#10;eventq_index=0&#10;is_switch=true&#10;&#10;um_nodes=16&#10;server_name=127.0.0.1&#10;server_port=2200&#10;speed=800.000000&#10;sync_repeat=500000&#10;sync_start=0">
<path fill="#84827c" stroke="#000000" d="M36,-147C36,-147 122,-147 122,-147 128,-147 134,-153 134,-159 134,-159 134,-226 134,-226 134,-232 128,-238 122,-238 122,-238 36,-238 36,-238 30,-238 24,-232 24,-226 24,-226 24,-159 24,-159 24,-153 30,-147 36,-147"/>
<text text-anchor="middle" x="79" y="-222.8" font-family="Arial" font-size="14.00" fill="#000000">portlink15 </text>
<text text-anchor="middle" x="79" y="-207.8" font-family="Arial" font-size="14.00" fill="#000000">: DistEtherLink</text>
</a>
</g>
</g>
<!-- system_interface -->
<g id="node1" class="node">
<title>system_interface</title>
<path fill="#7f7c77" stroke="#000000" d="M940,-24.5C940,-24.5 988,-24.5 988,-24.5 994,-24.5 1000,-30.5 1000,-36.5 1000,-36.5 1000,-48.5 1000,-48.5 1000,-54.5 994,-60.5 988,-60.5 988,-60.5 940,-60.5 940,-60.5 934,-60.5 928,-54.5 928,-48.5 928,-48.5 928,-36.5 928,-36.5 928,-30.5 934,-24.5 940,-24.5"/>
<text text-anchor="middle" x="964" y="-38.8" font-family="Arial" font-size="14.00" fill="#000000">interface</text>
</g>
<!-- system_portlink00_int0 -->
<g id="node2" class="node">
<title>system_portlink00_int0</title>
<path fill="#6a6863" stroke="#000000" d="M1814,-155.5C1814,-155.5 1844,-155.5 1844,-155.5 1850,-155.5 1856,-161.5 1856,-167.5 1856,-167.5 1856,-179.5 1856,-179.5 1856,-185.5 1850,-191.5 1844,-191.5 1844,-191.5 1814,-191.5 1814,-191.5 1808,-191.5 1802,-185.5 1802,-179.5 1802,-179.5 1802,-167.5 1802,-167.5 1802,-161.5 1808,-155.5 1814,-155.5"/>
<text text-anchor="middle" x="1829" y="-169.8" font-family="Arial" font-size="14.00" fill="#000000">int0</text>
</g>
<!-- system_portlink00_int0&#45;&gt;system_interface -->
<g id="edge1" class="edge">
<title>system_portlink00_int0&#45;&gt;system_interface</title>
<path fill="none" stroke="#000000" d="M1797.1911,-150.2081C1794.821,-149.0001 1792.4121,-147.9116 1790,-147 1644.9179,-92.1694 1162.6337,-55.8321 1010.4378,-45.5131"/>
<polygon fill="#000000" stroke="#000000" points="1795.6552,-153.3629 1806.0642,-155.3387 1799.1592,-147.303 1795.6552,-153.3629"/>
<polygon fill="#000000" stroke="#000000" points="1010.2717,-41.9941 1000.0594,-44.8152 1009.802,-48.9783 1010.2717,-41.9941"/>
</g>
<!-- system_portlink01_int0 -->
<g id="node3" class="node">
<title>system_portlink01_int0</title>
<path fill="#6a6863" stroke="#000000" d="M1696,-155.5C1696,-155.5 1726,-155.5 1726,-155.5 1732,-155.5 1738,-161.5 1738,-167.5 1738,-167.5 1738,-179.5 1738,-179.5 1738,-185.5 1732,-191.5 1726,-191.5 1726,-191.5 1696,-191.5 1696,-191.5 1690,-191.5 1684,-185.5 1684,-179.5 1684,-179.5 1684,-167.5 1684,-167.5 1684,-161.5 1690,-155.5 1696,-155.5"/>
<text text-anchor="middle" x="1711" y="-169.8" font-family="Arial" font-size="14.00" fill="#000000">int0</text>
</g>
<!-- system_portlink01_int0&#45;&gt;system_interface -->
<g id="edge2" class="edge">
<title>system_portlink01_int0&#45;&gt;system_interface</title>
<path fill="none" stroke="#000000" d="M1679.1691,-150.2656C1676.8043,-149.0438 1674.4025,-147.9365 1672,-147 1549.8669,-99.3924 1148.0818,-59.2714 1010.6117,-46.6381"/>
<polygon fill="#000000" stroke="#000000" points="1677.6276,-153.4181 1688.0303,-155.4269 1681.1508,-147.3694 1677.6276,-153.4181"/>
<polygon fill="#000000" stroke="#000000" points="1010.6922,-43.131 1000.4153,-45.7071 1010.0556,-50.102 1010.6922,-43.131"/>
</g>
<!-- system_portlink02_int0 -->
<g id="node4" class="node">
<title>system_portlink02_int0</title>
<path fill="#6a6863" stroke="#000000" d="M1578,-155.5C1578,-155.5 1608,-155.5 1608,-155.5 1614,-155.5 1620,-161.5 1620,-167.5 1620,-167.5 1620,-179.5 1620,-179.5 1620,-185.5 1614,-191.5 1608,-191.5 1608,-191.5 1578,-191.5 1578,-191.5 1572,-191.5 1566,-185.5 1566,-179.5 1566,-179.5 1566,-167.5 1566,-167.5 1566,-161.5 1572,-155.5 1578,-155.5"/>
<text text-anchor="middle" x="1593" y="-169.8" font-family="Arial" font-size="14.00" fill="#000000">int0</text>
</g>
<!-- system_portlink02_int0&#45;&gt;system_interface -->
<g id="edge3" class="edge">
<title>system_portlink02_int0&#45;&gt;system_interface</title>
<path fill="none" stroke="#000000" d="M1560.449,-149.9862C1558.3152,-148.8854 1556.1566,-147.8766 1554,-147 1362.2663,-69.0678 1112.1887,-49.1514 1010.265,-44.1451"/>
<polygon fill="#000000" stroke="#000000" points="1559.1549,-153.2821 1569.5601,-155.2776 1562.6703,-147.2288 1559.1549,-153.2821"/>
<polygon fill="#000000" stroke="#000000" points="1010.1617,-40.6365 1000.0098,-43.6677 1009.8362,-47.629 1010.1617,-40.6365"/>
</g>
<!-- system_portlink03_int0 -->
<g id="node5" class="node">
<title>system_portlink03_int0</title>
<path fill="#6a6863" stroke="#000000" d="M1460,-155.5C1460,-155.5 1490,-155.5 1490,-155.5 1496,-155.5 1502,-161.5 1502,-167.5 1502,-167.5 1502,-179.5 1502,-179.5 1502,-185.5 1496,-191.5 1490,-191.5 1490,-191.5 1460,-191.5 1460,-191.5 1454,-191.5 1448,-185.5 1448,-179.5 1448,-179.5 1448,-167.5 1448,-167.5 1448,-161.5 1454,-155.5 1460,-155.5"/>
<text text-anchor="middle" x="1475" y="-169.8" font-family="Arial" font-size="14.00" fill="#000000">int0</text>
</g>
<!-- system_portlink03_int0&#45;&gt;system_interface -->
<g id="edge4" class="edge">
<title>system_portlink03_int0&#45;&gt;system_interface</title>
<path fill="none" stroke="#000000" d="M1442.4036,-150.0946C1440.2812,-148.9666 1438.1374,-147.9223 1436,-147 1288.0834,-83.1755 1096.6266,-56.3125 1010.0793,-46.8655"/>
<polygon fill="#000000" stroke="#000000" points="1441.0947,-153.3862 1451.4854,-155.4558 1444.6532,-147.3582 1441.0947,-153.3862"/>
<polygon fill="#000000" stroke="#000000" points="1010.3692,-43.3767 1000.0548,-45.7985 1009.6282,-50.3374 1010.3692,-43.3767"/>
</g>
<!-- system_portlink04_int0 -->
<g id="node6" class="node">
<title>system_portlink04_int0</title>
<path fill="#6a6863" stroke="#000000" d="M1342,-155.5C1342,-155.5 1372,-155.5 1372,-155.5 1378,-155.5 1384,-161.5 1384,-167.5 1384,-167.5 1384,-179.5 1384,-179.5 1384,-185.5 1378,-191.5 1372,-191.5 1372,-191.5 1342,-191.5 1342,-191.5 1336,-191.5 1330,-185.5 1330,-179.5 1330,-179.5 1330,-167.5 1330,-167.5 1330,-161.5 1336,-155.5 1342,-155.5"/>
<text text-anchor="middle" x="1357" y="-169.8" font-family="Arial" font-size="14.00" fill="#000000">int0</text>
</g>
<!-- system_portlink04_int0&#45;&gt;system_interface -->
<g id="edge5" class="edge">
<title>system_portlink04_int0&#45;&gt;system_interface</title>
<path fill="none" stroke="#000000" d="M1324.1447,-150.1682C1322.1012,-149.0342 1320.0441,-147.9672 1318,-147 1213.181,-97.4052 1079.6653,-65.7092 1010.3985,-51.3888"/>
<polygon fill="#000000" stroke="#000000" points="1322.5631,-153.3016 1332.9341,-155.4678 1326.1776,-147.3069 1322.5631,-153.3016"/>
<polygon fill="#000000" stroke="#000000" points="1010.7492,-47.8884 1000.2516,-49.3207 1009.3511,-54.7474 1010.7492,-47.8884"/>
</g>
<!-- system_portlink05_int0 -->
<g id="node7" class="node">
<title>system_portlink05_int0</title>
<path fill="#6a6863" stroke="#000000" d="M1224,-155.5C1224,-155.5 1254,-155.5 1254,-155.5 1260,-155.5 1266,-161.5 1266,-167.5 1266,-167.5 1266,-179.5 1266,-179.5 1266,-185.5 1260,-191.5 1254,-191.5 1254,-191.5 1224,-191.5 1224,-191.5 1218,-191.5 1212,-185.5 1212,-179.5 1212,-179.5 1212,-167.5 1212,-167.5 1212,-161.5 1218,-155.5 1224,-155.5"/>
<text text-anchor="middle" x="1239" y="-169.8" font-family="Arial" font-size="14.00" fill="#000000">int0</text>
</g>
<!-- system_portlink05_int0&#45;&gt;system_interface -->
<g id="edge6" class="edge">
<title>system_portlink05_int0&#45;&gt;system_interface</title>
<path fill="none" stroke="#000000" d="M1205.1961,-150.0048C1203.456,-148.9614 1201.7177,-147.9537 1200,-147 1136.2273,-111.5925 1058.1332,-78.961 1009.7171,-59.8919"/>
<polygon fill="#000000" stroke="#000000" points="1203.4951,-153.0696 1213.8232,-155.4321 1207.2226,-147.1446 1203.4951,-153.0696"/>
<polygon fill="#000000" stroke="#000000" points="1010.7353,-56.5319 1000.1474,-56.1473 1008.1845,-63.0506 1010.7353,-56.5319"/>
</g>
<!-- system_portlink06_int0 -->
<g id="node8" class="node">
<title>system_portlink06_int0</title>
<path fill="#6a6863" stroke="#000000" d="M1106,-155.5C1106,-155.5 1136,-155.5 1136,-155.5 1142,-155.5 1148,-161.5 1148,-167.5 1148,-167.5 1148,-179.5 1148,-179.5 1148,-185.5 1142,-191.5 1136,-191.5 1136,-191.5 1106,-191.5 1106,-191.5 1100,-191.5 1094,-185.5 1094,-179.5 1094,-179.5 1094,-167.5 1094,-167.5 1094,-161.5 1100,-155.5 1106,-155.5"/>
<text text-anchor="middle" x="1121" y="-169.8" font-family="Arial" font-size="14.00" fill="#000000">int0</text>
</g>
<!-- system_portlink06_int0&#45;&gt;system_interface -->
<g id="edge7" class="edge">
<title>system_portlink06_int0&#45;&gt;system_interface</title>
<path fill="none" stroke="#000000" d="M1091.3371,-148.7495C1063.3026,-125.3576 1021.4808,-90.4617 993.4998,-67.1145"/>
<polygon fill="#000000" stroke="#000000" points="1089.2493,-151.5657 1099.1698,-155.285 1093.7339,-146.1909 1089.2493,-151.5657"/>
<polygon fill="#000000" stroke="#000000" points="995.5653,-64.2796 985.6448,-60.5603 991.0807,-69.6544 995.5653,-64.2796"/>
</g>
<!-- system_portlink07_int0 -->
<g id="node9" class="node">
<title>system_portlink07_int0</title>
<path fill="#6a6863" stroke="#000000" d="M988,-155.5C988,-155.5 1018,-155.5 1018,-155.5 1024,-155.5 1030,-161.5 1030,-167.5 1030,-167.5 1030,-179.5 1030,-179.5 1030,-185.5 1024,-191.5 1018,-191.5 1018,-191.5 988,-191.5 988,-191.5 982,-191.5 976,-185.5 976,-179.5 976,-179.5 976,-167.5 976,-167.5 976,-161.5 982,-155.5 988,-155.5"/>
<text text-anchor="middle" x="1003" y="-169.8" font-family="Arial" font-size="14.00" fill="#000000">int0</text>
</g>
<!-- system_portlink07_int0&#45;&gt;system_interface -->
<g id="edge8" class="edge">
<title>system_portlink07_int0&#45;&gt;system_interface</title>
<path fill="none" stroke="#000000" d="M994.633,-145.3954C988.0315,-123.2212 978.8702,-92.4485 972.289,-70.3425"/>
<polygon fill="#000000" stroke="#000000" points="991.3693,-146.6994 997.5772,-155.285 998.0783,-144.702 991.3693,-146.6994"/>
<polygon fill="#000000" stroke="#000000" points="975.5846,-69.1459 969.3767,-60.5603 968.8756,-71.1433 975.5846,-69.1459"/>
</g>
<!-- system_portlink08_int0 -->
<g id="node10" class="node">
<title>system_portlink08_int0</title>
<path fill="#6a6863" stroke="#000000" d="M910,-155.5C910,-155.5 940,-155.5 940,-155.5 946,-155.5 952,-161.5 952,-167.5 952,-167.5 952,-179.5 952,-179.5 952,-185.5 946,-191.5 940,-191.5 940,-191.5 910,-191.5 910,-191.5 904,-191.5 898,-185.5 898,-179.5 898,-179.5 898,-167.5 898,-167.5 898,-161.5 904,-155.5 910,-155.5"/>
<text text-anchor="middle" x="925" y="-169.8" font-family="Arial" font-size="14.00" fill="#000000">int0</text>
</g>
<!-- system_portlink08_int0&#45;&gt;system_interface -->
<g id="edge9" class="edge">
<title>system_portlink08_int0&#45;&gt;system_interface</title>
<path fill="none" stroke="#000000" d="M933.367,-145.3954C939.9685,-123.2212 949.1298,-92.4485 955.711,-70.3425"/>
<polygon fill="#000000" stroke="#000000" points="929.9217,-144.702 930.4228,-155.285 936.6307,-146.6994 929.9217,-144.702"/>
<polygon fill="#000000" stroke="#000000" points="959.1244,-71.1433 958.6233,-60.5603 952.4154,-69.1459 959.1244,-71.1433"/>
</g>
<!-- system_portlink09_int0 -->
<g id="node11" class="node">
<title>system_portlink09_int0</title>
<path fill="#6a6863" stroke="#000000" d="M792,-155.5C792,-155.5 822,-155.5 822,-155.5 828,-155.5 834,-161.5 834,-167.5 834,-167.5 834,-179.5 834,-179.5 834,-185.5 828,-191.5 822,-191.5 822,-191.5 792,-191.5 792,-191.5 786,-191.5 780,-185.5 780,-179.5 780,-179.5 780,-167.5 780,-167.5 780,-161.5 786,-155.5 792,-155.5"/>
<text text-anchor="middle" x="807" y="-169.8" font-family="Arial" font-size="14.00" fill="#000000">int0</text>
</g>
<!-- system_portlink09_int0&#45;&gt;system_interface -->
<g id="edge10" class="edge">
<title>system_portlink09_int0&#45;&gt;system_interface</title>
<path fill="none" stroke="#000000" d="M836.6629,-148.7495C864.6974,-125.3576 906.5192,-90.4617 934.5002,-67.1145"/>
<polygon fill="#000000" stroke="#000000" points="834.2661,-146.1909 828.8302,-155.285 838.7507,-151.5657 834.2661,-146.1909"/>
<polygon fill="#000000" stroke="#000000" points="936.9193,-69.6544 942.3552,-60.5603 932.4347,-64.2796 936.9193,-69.6544"/>
</g>
<!-- system_portlink10_int0 -->
<g id="node12" class="node">
<title>system_portlink10_int0</title>
<path fill="#6a6863" stroke="#000000" d="M674,-155.5C674,-155.5 704,-155.5 704,-155.5 710,-155.5 716,-161.5 716,-167.5 716,-167.5 716,-179.5 716,-179.5 716,-185.5 710,-191.5 704,-191.5 704,-191.5 674,-191.5 674,-191.5 668,-191.5 662,-185.5 662,-179.5 662,-179.5 662,-167.5 662,-167.5 662,-161.5 668,-155.5 674,-155.5"/>
<text text-anchor="middle" x="689" y="-169.8" font-family="Arial" font-size="14.00" fill="#000000">int0</text>
</g>
<!-- system_portlink10_int0&#45;&gt;system_interface -->
<g id="edge11" class="edge">
<title>system_portlink10_int0&#45;&gt;system_interface</title>
<path fill="none" stroke="#000000" d="M722.8039,-150.0048C724.544,-148.9614 726.2823,-147.9537 728,-147 791.7727,-111.5925 869.8668,-78.961 918.2829,-59.8919"/>
<polygon fill="#000000" stroke="#000000" points="720.7774,-147.1446 714.1768,-155.4321 724.5049,-153.0696 720.7774,-147.1446"/>
<polygon fill="#000000" stroke="#000000" points="919.8155,-63.0506 927.8526,-56.1473 917.2647,-56.5319 919.8155,-63.0506"/>
</g>
<!-- system_portlink11_int0 -->
<g id="node13" class="node">
<title>system_portlink11_int0</title>
<path fill="#6a6863" stroke="#000000" d="M556,-155.5C556,-155.5 586,-155.5 586,-155.5 592,-155.5 598,-161.5 598,-167.5 598,-167.5 598,-179.5 598,-179.5 598,-185.5 592,-191.5 586,-191.5 586,-191.5 556,-191.5 556,-191.5 550,-191.5 544,-185.5 544,-179.5 544,-179.5 544,-167.5 544,-167.5 544,-161.5 550,-155.5 556,-155.5"/>
<text text-anchor="middle" x="571" y="-169.8" font-family="Arial" font-size="14.00" fill="#000000">int0</text>
</g>
<!-- system_portlink11_int0&#45;&gt;system_interface -->
<g id="edge12" class="edge">
<title>system_portlink11_int0&#45;&gt;system_interface</title>
<path fill="none" stroke="#000000" d="M603.8553,-150.1682C605.8988,-149.0342 607.9559,-147.9672 610,-147 714.819,-97.4052 848.3347,-65.7092 917.6015,-51.3888"/>
<polygon fill="#000000" stroke="#000000" points="601.8224,-147.3069 595.0659,-155.4678 605.4369,-153.3016 601.8224,-147.3069"/>
<polygon fill="#000000" stroke="#000000" points="918.6489,-54.7474 927.7484,-49.3207 917.2508,-47.8884 918.6489,-54.7474"/>
</g>
<!-- system_portlink12_int0 -->
<g id="node14" class="node">
<title>system_portlink12_int0</title>
<path fill="#6a6863" stroke="#000000" d="M438,-155.5C438,-155.5 468,-155.5 468,-155.5 474,-155.5 480,-161.5 480,-167.5 480,-167.5 480,-179.5 480,-179.5 480,-185.5 474,-191.5 468,-191.5 468,-191.5 438,-191.5 438,-191.5 432,-191.5 426,-185.5 426,-179.5 426,-179.5 426,-167.5 426,-167.5 426,-161.5 432,-155.5 438,-155.5"/>
<text text-anchor="middle" x="453" y="-169.8" font-family="Arial" font-size="14.00" fill="#000000">int0</text>
</g>
<!-- system_portlink12_int0&#45;&gt;system_interface -->
<g id="edge13" class="edge">
<title>system_portlink12_int0&#45;&gt;system_interface</title>
<path fill="none" stroke="#000000" d="M485.5964,-150.0946C487.7188,-148.9666 489.8626,-147.9223 492,-147 639.9166,-83.1755 831.3734,-56.3125 917.9207,-46.8655"/>
<polygon fill="#000000" stroke="#000000" points="483.3468,-147.3582 476.5146,-155.4558 486.9053,-153.3862 483.3468,-147.3582"/>
<polygon fill="#000000" stroke="#000000" points="918.3718,-50.3374 927.9452,-45.7985 917.6308,-43.3767 918.3718,-50.3374"/>
</g>
<!-- system_portlink13_int0 -->
<g id="node15" class="node">
<title>system_portlink13_int0</title>
<path fill="#6a6863" stroke="#000000" d="M320,-155.5C320,-155.5 350,-155.5 350,-155.5 356,-155.5 362,-161.5 362,-167.5 362,-167.5 362,-179.5 362,-179.5 362,-185.5 356,-191.5 350,-191.5 350,-191.5 320,-191.5 320,-191.5 314,-191.5 308,-185.5 308,-179.5 308,-179.5 308,-167.5 308,-167.5 308,-161.5 314,-155.5 320,-155.5"/>
<text text-anchor="middle" x="335" y="-169.8" font-family="Arial" font-size="14.00" fill="#000000">int0</text>
</g>
<!-- system_portlink13_int0&#45;&gt;system_interface -->
<g id="edge14" class="edge">
<title>system_portlink13_int0&#45;&gt;system_interface</title>
<path fill="none" stroke="#000000" d="M367.551,-149.9862C369.6848,-148.8854 371.8434,-147.8766 374,-147 565.7337,-69.0678 815.8113,-49.1514 917.735,-44.1451"/>
<polygon fill="#000000" stroke="#000000" points="365.3297,-147.2288 358.4399,-155.2776 368.8451,-153.2821 365.3297,-147.2288"/>
<polygon fill="#000000" stroke="#000000" points="918.1638,-47.629 927.9902,-43.6677 917.8383,-40.6365 918.1638,-47.629"/>
</g>
<!-- system_portlink14_int0 -->
<g id="node16" class="node">
<title>system_portlink14_int0</title>
<path fill="#6a6863" stroke="#000000" d="M202,-155.5C202,-155.5 232,-155.5 232,-155.5 238,-155.5 244,-161.5 244,-167.5 244,-167.5 244,-179.5 244,-179.5 244,-185.5 238,-191.5 232,-191.5 232,-191.5 202,-191.5 202,-191.5 196,-191.5 190,-185.5 190,-179.5 190,-179.5 190,-167.5 190,-167.5 190,-161.5 196,-155.5 202,-155.5"/>
<text text-anchor="middle" x="217" y="-169.8" font-family="Arial" font-size="14.00" fill="#000000">int0</text>
</g>
<!-- system_portlink14_int0&#45;&gt;system_interface -->
<g id="edge15" class="edge">
<title>system_portlink14_int0&#45;&gt;system_interface</title>
<path fill="none" stroke="#000000" d="M248.8309,-150.2656C251.1957,-149.0438 253.5975,-147.9365 256,-147 378.1331,-99.3924 779.9182,-59.2714 917.3883,-46.6381"/>
<polygon fill="#000000" stroke="#000000" points="246.8492,-147.3694 239.9697,-155.4269 250.3724,-153.4181 246.8492,-147.3694"/>
<polygon fill="#000000" stroke="#000000" points="917.9444,-50.102 927.5847,-45.7071 917.3078,-43.131 917.9444,-50.102"/>
</g>
<!-- system_portlink15_int0 -->
<g id="node17" class="node">
<title>system_portlink15_int0</title>
<path fill="#6a6863" stroke="#000000" d="M84,-155.5C84,-155.5 114,-155.5 114,-155.5 120,-155.5 126,-161.5 126,-167.5 126,-167.5 126,-179.5 126,-179.5 126,-185.5 120,-191.5 114,-191.5 114,-191.5 84,-191.5 84,-191.5 78,-191.5 72,-185.5 72,-179.5 72,-179.5 72,-167.5 72,-167.5 72,-161.5 78,-155.5 84,-155.5"/>
<text text-anchor="middle" x="99" y="-169.8" font-family="Arial" font-size="14.00" fill="#000000">int0</text>
</g>
<!-- system_portlink15_int0&#45;&gt;system_interface -->
<g id="edge16" class="edge">
<title>system_portlink15_int0&#45;&gt;system_interface</title>
<path fill="none" stroke="#000000" d="M130.8089,-150.2081C133.179,-149.0001 135.5879,-147.9116 138,-147 283.0821,-92.1694 765.3663,-55.8321 917.5622,-45.5131"/>
<polygon fill="#000000" stroke="#000000" points="128.8408,-147.303 121.9358,-155.3387 132.3448,-153.3629 128.8408,-147.303"/>
<polygon fill="#000000" stroke="#000000" points="918.198,-48.9783 927.9406,-44.8152 917.7283,-41.9941 918.198,-48.9783"/>
</g>
</g>
</svg>
