<?xml version="1.0" encoding="UTF-8" standalone="no"?>
<!DOCTYPE svg PUBLIC "-//W3C//DTD SVG 1.1//EN"
 "http://www.w3.org/Graphics/SVG/1.1/DTD/svg11.dtd">
<!-- Generated by graphviz version 2.40.1 (20161225.0304)
 -->
<!-- Title: G Pages: 1 -->
<svg width="992pt" height="346pt"
 viewBox="0.00 0.00 992.00 346.00" xmlns="http://www.w3.org/2000/svg" xmlns:xlink="http://www.w3.org/1999/xlink">
<g id="graph0" class="graph" transform="scale(1 1) rotate(0) translate(4 342)">
<title>G</title>
<polygon fill="#ffffff" stroke="transparent" points="-4,4 -4,-342 988,-342 988,4 -4,4"/>
<g id="clust1" class="cluster">
<title>cluster_root</title>
<g id="a_clust1"><a xlink:title="eventq_index=0&#10;full_system=true&#10;sim_quantum=0&#10;time_sync_enable=false&#10;time_sync_period=100000000000&#10;time_sync_spin_threshold=100000000">
<path fill="#bab6ae" stroke="#000000" d="M20,-8C20,-8 964,-8 964,-8 970,-8 976,-14 976,-20 976,-20 976,-318 976,-318 976,-324 970,-330 964,-330 964,-330 20,-330 20,-330 14,-330 8,-324 8,-318 8,-318 8,-20 8,-20 8,-14 14,-8 20,-8"/>
<text text-anchor="middle" x="492" y="-314.8" font-family="Arial" font-size="14.00" fill="#000000">root </text>
<text text-anchor="middle" x="492" y="-299.8" font-family="Arial" font-size="14.00" fill="#000000">: Root</text>
</a>
</g>
</g>
<g id="clust2" class="cluster">
<title>cluster_system</title>
<g id="a_clust2"><a xlink:title="delay=0&#10;delay_var=0&#10;dump=Null&#10;eventq_index=0&#10;fabric_speed=800.000000&#10;output_buffer_size=1048576&#10;time_to_live=10000000000">
<path fill="#9f9c95" stroke="#000000" d="M28,-16C28,-16 956,-16 956,-16 962,-16 968,-22 968,-28 968,-28 968,-272 968,-272 968,-278 962,-284 956,-284 956,-284 28,-284 28,-284 22,-284 16,-278 16,-272 16,-272 16,-28 16,-28 16,-22 22,-16 28,-16"/>
<text text-anchor="middle" x="492" y="-268.8" font-family="Arial" font-size="14.00" fill="#000000">system </text>
<text text-anchor="middle" x="492" y="-253.8" font-family="Arial" font-size="14.00" fill="#000000">: EtherSwitch</text>
</a>
</g>
</g>
<g id="clust3" class="cluster">
<title>cluster_system_portlink0</title>
<g id="a_clust3"><a xlink:title="delay=500000&#10;delay_var=0&#10;dist_rank=0&#10;dist_size=8&#10;dist_sync_on_pseudo_op=false&#10;dump=Null&#10;eventq_index=0&#10;is_switch=true&#10;&#10;um_nodes=8&#10;server_name=127.0.0.1&#10;server_port=2200&#10;speed=800.000000&#10;sync_repeat=500000&#10;sync_start=0">
<path fill="#84827c" stroke="#000000" d="M862,-147C862,-147 948,-147 948,-147 954,-147 960,-153 960,-159 960,-159 960,-226 960,-226 960,-232 954,-238 948,-238 948,-238 862,-238 862,-238 856,-238 850,-232 850,-226 850,-226 850,-159 850,-159 850,-153 856,-147 862,-147"/>
<text text-anchor="middle" x="905" y="-222.8" font-family="Arial" font-size="14.00" fill="#000000">portlink0 </text>
<text text-anchor="middle" x="905" y="-207.8" font-family="Arial" font-size="14.00" fill="#000000">: DistEtherLink</text>
</a>
</g>
</g>
<g id="clust4" class="cluster">
<title>cluster_system_portlink1</title>
<g id="a_clust4"><a xlink:title="delay=500000&#10;delay_var=0&#10;dist_rank=0&#10;dist_size=8&#10;dist_sync_on_pseudo_op=false&#10;dump=Null&#10;eventq_index=0&#10;is_switch=true&#10;&#10;um_nodes=8&#10;server_name=127.0.0.1&#10;server_port=2200&#10;speed=800.000000&#10;sync_repeat=500000&#10;sync_start=0">
<path fill="#84827c" stroke="#000000" d="M744,-147C744,-147 830,-147 830,-147 836,-147 842,-153 842,-159 842,-159 842,-226 842,-226 842,-232 836,-238 830,-238 830,-238 744,-238 744,-238 738,-238 732,-232 732,-226 732,-226 732,-159 732,-159 732,-153 738,-147 744,-147"/>
<text text-anchor="middle" x="787" y="-222.8" font-family="Arial" font-size="14.00" fill="#000000">portlink1 </text>
<text text-anchor="middle" x="787" y="-207.8" font-family="Arial" font-size="14.00" fill="#000000">: DistEtherLink</text>
</a>
</g>
</g>
<g id="clust5" class="cluster">
<title>cluster_system_portlink2</title>
<g id="a_clust5"><a xlink:title="delay=500000&#10;delay_var=0&#10;dist_rank=0&#10;dist_size=8&#10;dist_sync_on_pseudo_op=false&#10;dump=Null&#10;eventq_index=0&#10;is_switch=true&#10;&#10;um_nodes=8&#10;server_name=127.0.0.1&#10;server_port=2200&#10;speed=800.000000&#10;sync_repeat=500000&#10;sync_start=0">
<path fill="#84827c" stroke="#000000" d="M626,-147C626,-147 712,-147 712,-147 718,-147 724,-153 724,-159 724,-159 724,-226 724,-226 724,-232 718,-238 712,-238 712,-238 626,-238 626,-238 620,-238 614,-232 614,-226 614,-226 614,-159 614,-159 614,-153 620,-147 626,-147"/>
<text text-anchor="middle" x="669" y="-222.8" font-family="Arial" font-size="14.00" fill="#000000">portlink2 </text>
<text text-anchor="middle" x="669" y="-207.8" font-family="Arial" font-size="14.00" fill="#000000">: DistEtherLink</text>
</a>
</g>
</g>
<g id="clust6" class="cluster">
<title>cluster_system_portlink3</title>
<g id="a_clust6"><a xlink:title="delay=500000&#10;delay_var=0&#10;dist_rank=0&#10;dist_size=8&#10;dist_sync_on_pseudo_op=false&#10;dump=Null&#10;eventq_index=0&#10;is_switch=true&#10;&#10;um_nodes=8&#10;server_name=127.0.0.1&#10;server_port=2200&#10;speed=800.000000&#10;sync_repeat=500000&#10;sync_start=0">
<path fill="#84827c" stroke="#000000" d="M508,-147C508,-147 594,-147 594,-147 600,-147 606,-153 606,-159 606,-159 606,-226 606,-226 606,-232 600,-238 594,-238 594,-238 508,-238 508,-238 502,-238 496,-232 496,-226 496,-226 496,-159 496,-159 496,-153 502,-147 508,-147"/>
<text text-anchor="middle" x="551" y="-222.8" font-family="Arial" font-size="14.00" fill="#000000">portlink3 </text>
<text text-anchor="middle" x="551" y="-207.8" font-family="Arial" font-size="14.00" fill="#000000">: DistEtherLink</text>
</a>
</g>
</g>
<g id="clust7" class="cluster">
<title>cluster_system_portlink4</title>
<g id="a_clust7"><a xlink:title="delay=500000&#10;delay_var=0&#10;dist_rank=0&#10;dist_size=8&#10;dist_sync_on_pseudo_op=false&#10;dump=Null&#10;eventq_index=0&#10;is_switch=true&#10;&#10;um_nodes=8&#10;server_name=127.0.0.1&#10;server_port=2200&#10;speed=800.000000&#10;sync_repeat=500000&#10;sync_start=0">
<path fill="#84827c" stroke="#000000" d="M390,-147C390,-147 476,-147 476,-147 482,-147 488,-153 488,-159 488,-159 488,-226 488,-226 488,-232 482,-238 476,-238 476,-238 390,-238 390,-238 384,-238 378,-232 378,-226 378,-226 378,-159 378,-159 378,-153 384,-147 390,-147"/>
<text text-anchor="middle" x="433" y="-222.8" font-family="Arial" font-size="14.00" fill="#000000">portlink4 </text>
<text text-anchor="middle" x="433" y="-207.8" font-family="Arial" font-size="14.00" fill="#000000">: DistEtherLink</text>
</a>
</g>
</g>
<g id="clust8" class="cluster">
<title>cluster_system_portlink5</title>
<g id="a_clust8"><a xlink:title="delay=500000&#10;delay_var=0&#10;dist_rank=0&#10;dist_size=8&#10;dist_sync_on_pseudo_op=false&#10;dump=Null&#10;eventq_index=0&#10;is_switch=true&#10;&#10;um_nodes=8&#10;server_name=127.0.0.1&#10;server_port=2200&#10;speed=800.000000&#10;sync_repeat=500000&#10;sync_start=0">
<path fill="#84827c" stroke="#000000" d="M272,-147C272,-147 358,-147 358,-147 364,-147 370,-153 370,-159 370,-159 370,-226 370,-226 370,-232 364,-238 358,-238 358,-238 272,-238 272,-238 266,-238 260,-232 260,-226 260,-226 260,-159 260,-159 260,-153 266,-147 272,-147"/>
<text text-anchor="middle" x="315" y="-222.8" font-family="Arial" font-size="14.00" fill="#000000">portlink5 </text>
<text text-anchor="middle" x="315" y="-207.8" font-family="Arial" font-size="14.00" fill="#000000">: DistEtherLink</text>
</a>
</g>
</g>
<g id="clust9" class="cluster">
<title>cluster_system_portlink6</title>
<g id="a_clust9"><a xlink:title="delay=500000&#10;delay_var=0&#10;dist_rank=0&#10;dist_size=8&#10;dist_sync_on_pseudo_op=false&#10;dump=Null&#10;eventq_index=0&#10;is_switch=true&#10;&#10;um_nodes=8&#10;server_name=127.0.0.1&#10;server_port=2200&#10;speed=800.000000&#10;sync_repeat=500000&#10;sync_start=0">
<path fill="#84827c" stroke="#000000" d="M154,-147C154,-147 240,-147 240,-147 246,-147 252,-153 252,-159 252,-159 252,-226 252,-226 252,-232 246,-238 240,-238 240,-238 154,-238 154,-238 148,-238 142,-232 142,-226 142,-226 142,-159 142,-159 142,-153 148,-147 154,-147"/>
<text text-anchor="middle" x="197" y="-222.8" font-family="Arial" font-size="14.00" fill="#000000">portlink6 </text>
<text text-anchor="middle" x="197" y="-207.8" font-family="Arial" font-size="14.00" fill="#000000">: DistEtherLink</text>
</a>
</g>
</g>
<g id="clust10" class="cluster">
<title>cluster_system_portlink7</title>
<g id="a_clust10"><a xlink:title="delay=500000&#10;delay_var=0&#10;dist_rank=0&#10;dist_size=8&#10;dist_sync_on_pseudo_op=false&#10;dump=Null&#10;eventq_index=0&#10;is_switch=true&#10;&#10;um_nodes=8&#10;server_name=127.0.0.1&#10;server_port=2200&#10;speed=800.000000&#10;sync_repeat=500000&#10;sync_start=0">
<path fill="#84827c" stroke="#000000" d="M36,-147C36,-147 122,-147 122,-147 128,-147 134,-153 134,-159 134,-159 134,-226 134,-226 134,-232 128,-238 122,-238 122,-238 36,-238 36,-238 30,-238 24,-232 24,-226 24,-226 24,-159 24,-159 24,-153 30,-147 36,-147"/>
<text text-anchor="middle" x="79" y="-222.8" font-family="Arial" font-size="14.00" fill="#000000">portlink7 </text>
<text text-anchor="middle" x="79" y="-207.8" font-family="Arial" font-size="14.00" fill="#000000">: DistEtherLink</text>
</a>
</g>
</g>
<!-- system_interface -->
<g id="node1" class="node">
<title>system_interface</title>
<path fill="#7f7c77" stroke="#000000" d="M468,-24.5C468,-24.5 516,-24.5 516,-24.5 522,-24.5 528,-30.5 528,-36.5 528,-36.5 528,-48.5 528,-48.5 528,-54.5 522,-60.5 516,-60.5 516,-60.5 468,-60.5 468,-60.5 462,-60.5 456,-54.5 456,-48.5 456,-48.5 456,-36.5 456,-36.5 456,-30.5 462,-24.5 468,-24.5"/>
<text text-anchor="middle" x="492" y="-38.8" font-family="Arial" font-size="14.00" fill="#000000">interface</text>
</g>
<!-- system_portlink0_int0 -->
<g id="node2" class="node">
<title>system_portlink0_int0</title>
<path fill="#6a6863" stroke="#000000" d="M870,-155.5C870,-155.5 900,-155.5 900,-155.5 906,-155.5 912,-161.5 912,-167.5 912,-167.5 912,-179.5 912,-179.5 912,-185.5 906,-191.5 900,-191.5 900,-191.5 870,-191.5 870,-191.5 864,-191.5 858,-185.5 858,-179.5 858,-179.5 858,-167.5 858,-167.5 858,-161.5 864,-155.5 870,-155.5"/>
<text text-anchor="middle" x="885" y="-169.8" font-family="Arial" font-size="14.00" fill="#000000">int0</text>
</g>
<!-- system_portlink0_int0&#45;&gt;system_interface -->
<g id="edge1" class="edge">
<title>system_portlink0_int0&#45;&gt;system_interface</title>
<path fill="none" stroke="#000000" d="M852.1447,-150.1682C850.1012,-149.0342 848.0441,-147.9672 846,-147 741.181,-97.4052 607.6653,-65.7092 538.3985,-51.3888"/>
<polygon fill="#000000" stroke="#000000" points="850.5631,-153.3016 860.9341,-155.4678 854.1776,-147.3069 850.5631,-153.3016"/>
<polygon fill="#000000" stroke="#000000" points="538.7492,-47.8884 528.2516,-49.3207 537.3511,-54.7474 538.7492,-47.8884"/>
</g>
<!-- system_portlink1_int0 -->
<g id="node3" class="node">
<title>system_portlink1_int0</title>
<path fill="#6a6863" stroke="#000000" d="M752,-155.5C752,-155.5 782,-155.5 782,-155.5 788,-155.5 794,-161.5 794,-167.5 794,-167.5 794,-179.5 794,-179.5 794,-185.5 788,-191.5 782,-191.5 782,-191.5 752,-191.5 752,-191.5 746,-191.5 740,-185.5 740,-179.5 740,-179.5 740,-167.5 740,-167.5 740,-161.5 746,-155.5 752,-155.5"/>
<text text-anchor="middle" x="767" y="-169.8" font-family="Arial" font-size="14.00" fill="#000000">int0</text>
</g>
<!-- system_portlink1_int0&#45;&gt;system_interface -->
<g id="edge2" class="edge">
<title>system_portlink1_int0&#45;&gt;system_interface</title>
<path fill="none" stroke="#000000" d="M733.1961,-150.0048C731.456,-148.9614 729.7177,-147.9537 728,-147 664.2273,-111.5925 586.1332,-78.961 537.7171,-59.8919"/>
<polygon fill="#000000" stroke="#000000" points="731.4951,-153.0696 741.8232,-155.4321 735.2226,-147.1446 731.4951,-153.0696"/>
<polygon fill="#000000" stroke="#000000" points="538.7353,-56.5319 528.1474,-56.1473 536.1845,-63.0506 538.7353,-56.5319"/>
</g>
<!-- system_portlink2_int0 -->
<g id="node4" class="node">
<title>system_portlink2_int0</title>
<path fill="#6a6863" stroke="#000000" d="M634,-155.5C634,-155.5 664,-155.5 664,-155.5 670,-155.5 676,-161.5 676,-167.5 676,-167.5 676,-179.5 676,-179.5 676,-185.5 670,-191.5 664,-191.5 664,-191.5 634,-191.5 634,-191.5 628,-191.5 622,-185.5 622,-179.5 622,-179.5 622,-167.5 622,-167.5 622,-161.5 628,-155.5 634,-155.5"/>
<text text-anchor="middle" x="649" y="-169.8" font-family="Arial" font-size="14.00" fill="#000000">int0</text>
</g>
<!-- system_portlink2_int0&#45;&gt;system_interface -->
<g id="edge3" class="edge">
<title>system_portlink2_int0&#45;&gt;system_interface</title>
<path fill="none" stroke="#000000" d="M619.3371,-148.7495C591.3026,-125.3576 549.4808,-90.4617 521.4998,-67.1145"/>
<polygon fill="#000000" stroke="#000000" points="617.2493,-151.5657 627.1698,-155.285 621.7339,-146.1909 617.2493,-151.5657"/>
<polygon fill="#000000" stroke="#000000" points="523.5653,-64.2796 513.6448,-60.5603 519.0807,-69.6544 523.5653,-64.2796"/>
</g>
<!-- system_portlink3_int0 -->
<g id="node5" class="node">
<title>system_portlink3_int0</title>
<path fill="#6a6863" stroke="#000000" d="M516,-155.5C516,-155.5 546,-155.5 546,-155.5 552,-155.5 558,-161.5 558,-167.5 558,-167.5 558,-179.5 558,-179.5 558,-185.5 552,-191.5 546,-191.5 546,-191.5 516,-191.5 516,-191.5 510,-191.5 504,-185.5 504,-179.5 504,-179.5 504,-167.5 504,-167.5 504,-161.5 510,-155.5 516,-155.5"/>
<text text-anchor="middle" x="531" y="-169.8" font-family="Arial" font-size="14.00" fill="#000000">int0</text>
</g>
<!-- system_portlink3_int0&#45;&gt;system_interface -->
<g id="edge4" class="edge">
<title>system_portlink3_int0&#45;&gt;system_interface</title>
<path fill="none" stroke="#000000" d="M522.633,-145.3954C516.0315,-123.2212 506.8702,-92.4485 500.289,-70.3425"/>
<polygon fill="#000000" stroke="#000000" points="519.3693,-146.6994 525.5772,-155.285 526.0783,-144.702 519.3693,-146.6994"/>
<polygon fill="#000000" stroke="#000000" points="503.5846,-69.1459 497.3767,-60.5603 496.8756,-71.1433 503.5846,-69.1459"/>
</g>
<!-- system_portlink4_int0 -->
<g id="node6" class="node">
<title>system_portlink4_int0</title>
<path fill="#6a6863" stroke="#000000" d="M438,-155.5C438,-155.5 468,-155.5 468,-155.5 474,-155.5 480,-161.5 480,-167.5 480,-167.5 480,-179.5 480,-179.5 480,-185.5 474,-191.5 468,-191.5 468,-191.5 438,-191.5 438,-191.5 432,-191.5 426,-185.5 426,-179.5 426,-179.5 426,-167.5 426,-167.5 426,-161.5 432,-155.5 438,-155.5"/>
<text text-anchor="middle" x="453" y="-169.8" font-family="Arial" font-size="14.00" fill="#000000">int0</text>
</g>
<!-- system_portlink4_int0&#45;&gt;system_interface -->
<g id="edge5" class="edge">
<title>system_portlink4_int0&#45;&gt;system_interface</title>
<path fill="none" stroke="#000000" d="M461.367,-145.3954C467.9685,-123.2212 477.1298,-92.4485 483.711,-70.3425"/>
<polygon fill="#000000" stroke="#000000" points="457.9217,-144.702 458.4228,-155.285 464.6307,-146.6994 457.9217,-144.702"/>
<polygon fill="#000000" stroke="#000000" points="487.1244,-71.1433 486.6233,-60.5603 480.4154,-69.1459 487.1244,-71.1433"/>
</g>
<!-- system_portlink5_int0 -->
<g id="node7" class="node">
<title>system_portlink5_int0</title>
<path fill="#6a6863" stroke="#000000" d="M320,-155.5C320,-155.5 350,-155.5 350,-155.5 356,-155.5 362,-161.5 362,-167.5 362,-167.5 362,-179.5 362,-179.5 362,-185.5 356,-191.5 350,-191.5 350,-191.5 320,-191.5 320,-191.5 314,-191.5 308,-185.5 308,-179.5 308,-179.5 308,-167.5 308,-167.5 308,-161.5 314,-155.5 320,-155.5"/>
<text text-anchor="middle" x="335" y="-169.8" font-family="Arial" font-size="14.00" fill="#000000">int0</text>
</g>
<!-- system_portlink5_int0&#45;&gt;system_interface -->
<g id="edge6" class="edge">
<title>system_portlink5_int0&#45;&gt;system_interface</title>
<path fill="none" stroke="#000000" d="M364.6629,-148.7495C392.6974,-125.3576 434.5192,-90.4617 462.5002,-67.1145"/>
<polygon fill="#000000" stroke="#000000" points="362.2661,-146.1909 356.8302,-155.285 366.7507,-151.5657 362.2661,-146.1909"/>
<polygon fill="#000000" stroke="#000000" points="464.9193,-69.6544 470.3552,-60.5603 460.4347,-64.2796 464.9193,-69.6544"/>
</g>
<!-- system_portlink6_int0 -->
<g id="node8" class="node">
<title>system_portlink6_int0</title>
<path fill="#6a6863" stroke="#000000" d="M202,-155.5C202,-155.5 232,-155.5 232,-155.5 238,-155.5 244,-161.5 244,-167.5 244,-167.5 244,-179.5 244,-179.5 244,-185.5 238,-191.5 232,-191.5 232,-191.5 202,-191.5 202,-191.5 196,-191.5 190,-185.5 190,-179.5 190,-179.5 190,-167.5 190,-167.5 190,-161.5 196,-155.5 202,-155.5"/>
<text text-anchor="middle" x="217" y="-169.8" font-family="Arial" font-size="14.00" fill="#000000">int0</text>
</g>
<!-- system_portlink6_int0&#45;&gt;system_interface -->
<g id="edge7" class="edge">
<title>system_portlink6_int0&#45;&gt;system_interface</title>
<path fill="none" stroke="#000000" d="M250.8039,-150.0048C252.544,-148.9614 254.2823,-147.9537 256,-147 319.7727,-111.5925 397.8668,-78.961 446.2829,-59.8919"/>
<polygon fill="#000000" stroke="#000000" points="248.7774,-147.1446 242.1768,-155.4321 252.5049,-153.0696 248.7774,-147.1446"/>
<polygon fill="#000000" stroke="#000000" points="447.8155,-63.0506 455.8526,-56.1473 445.2647,-56.5319 447.8155,-63.0506"/>
</g>
<!-- system_portlink7_int0 -->
<g id="node9" class="node">
<title>system_portlink7_int0</title>
<path fill="#6a6863" stroke="#000000" d="M84,-155.5C84,-155.5 114,-155.5 114,-155.5 120,-155.5 126,-161.5 126,-167.5 126,-167.5 126,-179.5 126,-179.5 126,-185.5 120,-191.5 114,-191.5 114,-191.5 84,-191.5 84,-191.5 78,-191.5 72,-185.5 72,-179.5 72,-179.5 72,-167.5 72,-167.5 72,-161.5 78,-155.5 84,-155.5"/>
<text text-anchor="middle" x="99" y="-169.8" font-family="Arial" font-size="14.00" fill="#000000">int0</text>
</g>
<!-- system_portlink7_int0&#45;&gt;system_interface -->
<g id="edge8" class="edge">
<title>system_portlink7_int0&#45;&gt;system_interface</title>
<path fill="none" stroke="#000000" d="M131.8553,-150.1682C133.8988,-149.0342 135.9559,-147.9672 138,-147 242.819,-97.4052 376.3347,-65.7092 445.6015,-51.3888"/>
<polygon fill="#000000" stroke="#000000" points="129.8224,-147.3069 123.0659,-155.4678 133.4369,-153.3016 129.8224,-147.3069"/>
<polygon fill="#000000" stroke="#000000" points="446.6489,-54.7474 455.7484,-49.3207 445.2508,-47.8884 446.6489,-54.7474"/>
</g>
</g>
</svg>
