<?xml version="1.0" encoding="UTF-8" standalone="no"?>
<!DOCTYPE svg PUBLIC "-//W3C//DTD SVG 1.1//EN"
 "http://www.w3.org/Graphics/SVG/1.1/DTD/svg11.dtd">
<!-- Generated by graphviz version 2.40.1 (20161225.0304)
 -->
<!-- Title: G Pages: 1 -->
<svg width="284pt" height="346pt"
 viewBox="0.00 0.00 284.00 346.00" xmlns="http://www.w3.org/2000/svg" xmlns:xlink="http://www.w3.org/1999/xlink">
<g id="graph0" class="graph" transform="scale(1 1) rotate(0) translate(4 342)">
<title>G</title>
<polygon fill="#ffffff" stroke="transparent" points="-4,4 -4,-342 280,-342 280,4 -4,4"/>
<g id="clust1" class="cluster">
<title>cluster_root</title>
<g id="a_clust1"><a xlink:title="eventq_index=0&#10;full_system=true&#10;sim_quantum=0&#10;time_sync_enable=false&#10;time_sync_period=100000000000&#10;time_sync_spin_threshold=100000000">
<path fill="#bab6ae" stroke="#000000" d="M20,-8C20,-8 256,-8 256,-8 262,-8 268,-14 268,-20 268,-20 268,-318 268,-318 268,-324 262,-330 256,-330 256,-330 20,-330 20,-330 14,-330 8,-324 8,-318 8,-318 8,-20 8,-20 8,-14 14,-8 20,-8"/>
<text text-anchor="middle" x="138" y="-314.8" font-family="Arial" font-size="14.00" fill="#000000">root </text>
<text text-anchor="middle" x="138" y="-299.8" font-family="Arial" font-size="14.00" fill="#000000">: Root</text>
</a>
</g>
</g>
<g id="clust2" class="cluster">
<title>cluster_system</title>
<g id="a_clust2"><a xlink:title="delay=0&#10;delay_var=0&#10;dump=Null&#10;eventq_index=0&#10;fabric_speed=800.000000&#10;output_buffer_size=1048576&#10;time_to_live=10000000000">
<path fill="#9f9c95" stroke="#000000" d="M28,-16C28,-16 248,-16 248,-16 254,-16 260,-22 260,-28 260,-28 260,-272 260,-272 260,-278 254,-284 248,-284 248,-284 28,-284 28,-284 22,-284 16,-278 16,-272 16,-272 16,-28 16,-28 16,-22 22,-16 28,-16"/>
<text text-anchor="middle" x="138" y="-268.8" font-family="Arial" font-size="14.00" fill="#000000">system </text>
<text text-anchor="middle" x="138" y="-253.8" font-family="Arial" font-size="14.00" fill="#000000">: EtherSwitch</text>
</a>
</g>
</g>
<g id="clust3" class="cluster">
<title>cluster_system_portlink0</title>
<g id="a_clust3"><a xlink:title="delay=500000&#10;delay_var=0&#10;dist_rank=0&#10;dist_size=2&#10;dist_sync_on_pseudo_op=false&#10;dump=Null&#10;eventq_index=0&#10;is_switch=true&#10;&#10;um_nodes=2&#10;server_name=127.0.0.1&#10;server_port=2200&#10;speed=800.000000&#10;sync_repeat=500000&#10;sync_start=0">
<path fill="#84827c" stroke="#000000" d="M154,-147C154,-147 240,-147 240,-147 246,-147 252,-153 252,-159 252,-159 252,-226 252,-226 252,-232 246,-238 240,-238 240,-238 154,-238 154,-238 148,-238 142,-232 142,-226 142,-226 142,-159 142,-159 142,-153 148,-147 154,-147"/>
<text text-anchor="middle" x="197" y="-222.8" font-family="Arial" font-size="14.00" fill="#000000">portlink0 </text>
<text text-anchor="middle" x="197" y="-207.8" font-family="Arial" font-size="14.00" fill="#000000">: DistEtherLink</text>
</a>
</g>
</g>
<g id="clust4" class="cluster">
<title>cluster_system_portlink1</title>
<g id="a_clust4"><a xlink:title="delay=500000&#10;delay_var=0&#10;dist_rank=0&#10;dist_size=2&#10;dist_sync_on_pseudo_op=false&#10;dump=Null&#10;eventq_index=0&#10;is_switch=true&#10;&#10;um_nodes=2&#10;server_name=127.0.0.1&#10;server_port=2200&#10;speed=800.000000&#10;sync_repeat=500000&#10;sync_start=0">
<path fill="#84827c" stroke="#000000" d="M36,-147C36,-147 122,-147 122,-147 128,-147 134,-153 134,-159 134,-159 134,-226 134,-226 134,-232 128,-238 122,-238 122,-238 36,-238 36,-238 30,-238 24,-232 24,-226 24,-226 24,-159 24,-159 24,-153 30,-147 36,-147"/>
<text text-anchor="middle" x="79" y="-222.8" font-family="Arial" font-size="14.00" fill="#000000">portlink1 </text>
<text text-anchor="middle" x="79" y="-207.8" font-family="Arial" font-size="14.00" fill="#000000">: DistEtherLink</text>
</a>
</g>
</g>
<!-- system_interface -->
<g id="node1" class="node">
<title>system_interface</title>
<path fill="#7f7c77" stroke="#000000" d="M114,-24.5C114,-24.5 162,-24.5 162,-24.5 168,-24.5 174,-30.5 174,-36.5 174,-36.5 174,-48.5 174,-48.5 174,-54.5 168,-60.5 162,-60.5 162,-60.5 114,-60.5 114,-60.5 108,-60.5 102,-54.5 102,-48.5 102,-48.5 102,-36.5 102,-36.5 102,-30.5 108,-24.5 114,-24.5"/>
<text text-anchor="middle" x="138" y="-38.8" font-family="Arial" font-size="14.00" fill="#000000">interface</text>
</g>
<!-- system_portlink0_int0 -->
<g id="node2" class="node">
<title>system_portlink0_int0</title>
<path fill="#6a6863" stroke="#000000" d="M162,-155.5C162,-155.5 192,-155.5 192,-155.5 198,-155.5 204,-161.5 204,-167.5 204,-167.5 204,-179.5 204,-179.5 204,-185.5 198,-191.5 192,-191.5 192,-191.5 162,-191.5 162,-191.5 156,-191.5 150,-185.5 150,-179.5 150,-179.5 150,-167.5 150,-167.5 150,-161.5 156,-155.5 162,-155.5"/>
<text text-anchor="middle" x="177" y="-169.8" font-family="Arial" font-size="14.00" fill="#000000">int0</text>
</g>
<!-- system_portlink0_int0&#45;&gt;system_interface -->
<g id="edge1" class="edge">
<title>system_portlink0_int0&#45;&gt;system_interface</title>
<path fill="none" stroke="#000000" d="M168.633,-145.3954C162.0315,-123.2212 152.8702,-92.4485 146.289,-70.3425"/>
<polygon fill="#000000" stroke="#000000" points="165.3693,-146.6994 171.5772,-155.285 172.0783,-144.702 165.3693,-146.6994"/>
<polygon fill="#000000" stroke="#000000" points="149.5846,-69.1459 143.3767,-60.5603 142.8756,-71.1433 149.5846,-69.1459"/>
</g>
<!-- system_portlink1_int0 -->
<g id="node3" class="node">
<title>system_portlink1_int0</title>
<path fill="#6a6863" stroke="#000000" d="M84,-155.5C84,-155.5 114,-155.5 114,-155.5 120,-155.5 126,-161.5 126,-167.5 126,-167.5 126,-179.5 126,-179.5 126,-185.5 120,-191.5 114,-191.5 114,-191.5 84,-191.5 84,-191.5 78,-191.5 72,-185.5 72,-179.5 72,-179.5 72,-167.5 72,-167.5 72,-161.5 78,-155.5 84,-155.5"/>
<text text-anchor="middle" x="99" y="-169.8" font-family="Arial" font-size="14.00" fill="#000000">int0</text>
</g>
<!-- system_portlink1_int0&#45;&gt;system_interface -->
<g id="edge2" class="edge">
<title>system_portlink1_int0&#45;&gt;system_interface</title>
<path fill="none" stroke="#000000" d="M107.367,-145.3954C113.9685,-123.2212 123.1298,-92.4485 129.711,-70.3425"/>
<polygon fill="#000000" stroke="#000000" points="103.9217,-144.702 104.4228,-155.285 110.6307,-146.6994 103.9217,-144.702"/>
<polygon fill="#000000" stroke="#000000" points="133.1244,-71.1433 132.6233,-60.5603 126.4154,-69.1459 133.1244,-71.1433"/>
</g>
</g>
</svg>
